<svg width="44" height="44" viewBox="0 0 44 44" fill="none" xmlns="http://www.w3.org/2000/svg">
<path d="M5.81152 13.6387L21.9998 23.007L38.0781 13.6936" stroke="#009CDE" stroke-width="1.5" stroke-linecap="round" stroke-linejoin="round"/>
<path d="M21.9998 39.6166V22.9883" stroke="#009CDE" stroke-width="1.5" stroke-linecap="round" stroke-linejoin="round"/>
<path d="M39.6182 16.811V27.1877C39.6182 27.2794 39.6182 27.3527 39.5999 27.4443C38.3166 26.326 36.6666 25.6661 34.8332 25.6661C33.1099 25.6661 31.5149 26.2711 30.2499 27.2794C28.5632 28.6177 27.4999 30.6894 27.4999 32.9994C27.4999 34.3744 27.8849 35.676 28.5632 36.776C28.7282 37.0694 28.9299 37.3444 29.1499 37.6011L25.7949 39.4528C23.7049 40.6261 20.2949 40.6261 18.2049 39.4528L8.41489 34.026C6.19656 32.7977 4.38159 29.7177 4.38159 27.1877V16.811C4.38159 14.281 6.19656 11.2011 8.41489 9.97272L18.2049 4.54602C20.2949 3.37268 23.7049 3.37268 25.7949 4.54602L35.5849 9.97272C37.8032 11.2011 39.6182 14.281 39.6182 16.811Z" stroke="#009CDE" stroke-width="1.5" stroke-linecap="round" stroke-linejoin="round"/>
<path d="M42.1667 32.9993C42.1667 35.1993 41.195 37.161 39.6734 38.4993C38.3717 39.636 36.685 40.3327 34.8333 40.3327C30.7817 40.3327 27.5 37.051 27.5 32.9993C27.5 30.6893 28.5633 28.6177 30.25 27.2794C31.515 26.271 33.11 25.666 34.8333 25.666C38.885 25.666 42.1667 28.9477 42.1667 32.9993Z" stroke="#009CDE" stroke-width="1.5" stroke-miterlimit="10" stroke-linecap="round" stroke-linejoin="round"/>
<path d="M35.2917 30.707V33.457L33 34.832" stroke="#009CDE" stroke-width="1.5" stroke-miterlimit="10" stroke-linecap="round" stroke-linejoin="round"/>
</svg>
