<svg width="212" height="55" viewBox="0 0 212 55" fill="none" xmlns="http://www.w3.org/2000/svg">
<path d="M18.6153 54.88C16.0553 54.88 13.4313 54.5813 10.7433 53.984C8.09792 53.4293 6.13525 52.704 4.85525 51.808C4.55658 51.552 4.40725 51.2747 4.40725 50.976C4.40725 50.7627 4.47125 50.5493 4.59925 50.336L7.35125 45.28C7.47925 45.0667 7.60725 44.8747 7.73525 44.704C7.90592 44.576 8.07658 44.512 8.24725 44.512C8.33258 44.512 8.58858 44.5973 9.01525 44.768C11.0206 45.792 13.7939 46.304 17.3353 46.304C19.3406 46.304 20.8553 45.8773 21.8793 45.024C22.9033 44.1707 23.4153 42.784 23.4153 40.864C22.5619 41.4613 21.4953 41.952 20.2153 42.336C18.9353 42.6773 17.5699 42.848 16.1193 42.848C11.0419 42.848 7.15925 41.5893 4.47125 39.072C1.82592 36.5547 0.50325 32.9067 0.50325 28.128C0.50325 22.9227 2.12458 18.9973 5.36725 16.352C8.60992 13.664 13.4099 12.32 19.7673 12.32C22.9673 12.32 26.0179 12.768 28.9193 13.664C31.8206 14.56 34.2313 15.6907 36.1513 17.056V37.472C36.1513 42.6773 34.6579 46.88 31.6713 50.08C28.6846 53.28 24.3326 54.88 18.6153 54.88ZM18.9353 33.824C22.0073 33.824 23.5433 32.352 23.5433 29.408V21.664C22.6473 21.28 21.1539 21.088 19.0633 21.088C17.1859 21.088 15.7566 21.5573 14.7753 22.496C13.8366 23.4347 13.3673 25.12 13.3673 27.552C13.3673 29.728 13.8153 31.328 14.7113 32.352C15.6073 33.3333 17.0153 33.824 18.9353 33.824ZM84.6128 44C83.3754 44 82.5008 43.744 81.9888 43.232C81.4768 42.72 81.2208 41.9093 81.2208 40.8V15.264C81.2208 14.496 81.3488 13.984 81.6048 13.728C81.9034 13.4293 82.5008 13.28 83.3968 13.28H89.9888C90.5008 13.28 90.8848 13.3653 91.1408 13.536C91.4394 13.664 91.6101 13.92 91.6528 14.304L91.9728 16.16C94.5328 13.6 97.6261 12.32 101.253 12.32C102.661 12.32 103.813 12.448 104.709 12.704C105.605 12.9173 106.415 13.28 107.141 13.792C107.567 14.0907 107.781 14.432 107.781 14.816C107.781 14.944 107.738 15.1787 107.653 15.52L105.605 21.344C105.434 21.9413 105.114 22.24 104.645 22.24C104.431 22.24 104.175 22.1547 103.877 21.984C102.725 21.344 101.338 21.024 99.7168 21.024C98.0954 21.024 96.7514 21.472 95.6848 22.368C94.6608 23.264 94.1488 24.4587 94.1488 25.952V40.8C94.1488 41.9093 93.8928 42.72 93.3808 43.232C92.9114 43.744 92.0581 44 90.8208 44H84.6128ZM115.201 10.016C113.75 10.016 112.641 9.632 111.873 8.864C111.105 8.05333 110.721 7.11466 110.721 6.048V4.512C110.721 3.40267 111.105 2.464 111.873 1.696C112.641 0.885333 113.75 0.48 115.201 0.48H119.809C121.302 0.48 122.433 0.885333 123.201 1.696C123.969 2.464 124.353 3.40267 124.353 4.512V6.048C124.353 7.11466 123.969 8.05333 123.201 8.864C122.433 9.632 121.302 10.016 119.809 10.016H115.201ZM114.433 44C113.195 44 112.321 43.744 111.809 43.232C111.297 42.72 111.041 41.9093 111.041 40.8V16.544C111.041 15.4347 111.297 14.624 111.809 14.112C112.321 13.5573 113.195 13.28 114.433 13.28H120.577C121.814 13.28 122.689 13.5573 123.201 14.112C123.755 14.624 124.033 15.4347 124.033 16.544V40.8C124.033 41.9093 123.755 42.72 123.201 43.232C122.689 43.744 121.814 44 120.577 44H114.433ZM144.694 44.96C138.678 44.96 133.707 43.8507 129.782 41.632C128.971 41.12 128.566 40.672 128.566 40.288C128.566 40.0747 128.672 39.7547 128.886 39.328L131.574 34.528C131.83 34.016 132.15 33.76 132.534 33.76C132.79 33.76 133.152 33.888 133.622 34.144C134.816 34.784 136.331 35.3813 138.166 35.936C140.043 36.448 141.707 36.704 143.158 36.704C144.523 36.704 145.504 36.576 146.102 36.32C146.699 36.0213 146.998 35.552 146.998 34.912C146.998 34.3147 146.571 33.824 145.718 33.44C144.907 33.0133 143.414 32.48 141.238 31.84L139.83 31.456C136.288 30.3893 133.728 29.1733 132.15 27.808C130.571 26.4427 129.782 24.5013 129.782 21.984C129.782 18.8693 131.126 16.48 133.814 14.816C136.502 13.152 140.107 12.32 144.63 12.32C147.446 12.32 149.899 12.576 151.99 13.088C154.08 13.6 156.086 14.368 158.006 15.392C158.774 15.8187 159.158 16.288 159.158 16.8C159.158 17.0987 159.03 17.4827 158.774 17.952L156.15 22.112C155.851 22.5813 155.552 22.816 155.254 22.816C154.998 22.816 154.656 22.688 154.23 22.432C153.206 21.8773 152.011 21.4293 150.646 21.088C149.28 20.7467 147.958 20.576 146.678 20.576C143.734 20.576 142.262 21.216 142.262 22.496C142.262 23.0933 142.731 23.6053 143.67 24.032C144.651 24.416 146.144 24.8427 148.15 25.312C148.619 25.44 149.259 25.6107 150.07 25.824C150.923 26.0373 151.627 26.2507 152.182 26.464C154.23 27.1893 155.808 27.936 156.918 28.704C158.027 29.4293 158.816 30.304 159.286 31.328C159.755 32.3093 159.99 33.568 159.99 35.104C159.99 36.9387 159.435 38.6027 158.326 40.096C157.216 41.5467 155.51 42.72 153.206 43.616C150.902 44.512 148.064 44.96 144.694 44.96ZM167.613 44C166.375 44 165.501 43.744 164.989 43.232C164.477 42.72 164.221 41.9093 164.221 40.8V15.264C164.221 14.496 164.349 13.984 164.605 13.728C164.903 13.4293 165.501 13.28 166.397 13.28H172.477C172.989 13.28 173.373 13.3653 173.629 13.536C173.927 13.664 174.098 13.92 174.141 14.304L174.461 16.288C175.655 15.0507 176.999 14.0907 178.493 13.408C179.986 12.6827 181.735 12.32 183.741 12.32C185.533 12.32 187.069 12.64 188.349 13.28C189.629 13.92 190.717 14.9013 191.613 16.224C192.765 14.9867 194.087 14.0267 195.581 13.344C197.117 12.6613 198.951 12.32 201.085 12.32C204.37 12.32 206.93 13.28 208.765 15.2C210.599 17.0773 211.517 19.936 211.517 23.776V40.8C211.517 41.9093 211.261 42.72 210.749 43.232C210.237 43.744 209.362 44 208.125 44H202.941C201.703 44 200.829 43.744 200.317 43.232C199.805 42.72 199.549 41.9093 199.549 40.8V24.608C199.549 23.3707 199.314 22.4747 198.845 21.92C198.418 21.3653 197.757 21.088 196.861 21.088C195.837 21.088 195.026 21.4293 194.429 22.112C193.874 22.752 193.597 23.6693 193.597 24.864V40.8C193.597 41.9093 193.341 42.72 192.829 43.232C192.317 43.744 191.442 44 190.205 44H185.533C184.295 44 183.421 43.744 182.909 43.232C182.397 42.72 182.141 41.9093 182.141 40.8V24.48C182.141 22.2187 181.266 21.088 179.517 21.088C178.45 21.088 177.618 21.4293 177.021 22.112C176.423 22.7947 176.125 23.7333 176.125 24.928V40.8C176.125 41.9093 175.869 42.72 175.357 43.232C174.887 43.744 174.034 44 172.797 44H167.613Z" fill="#0CFFFC"/>
<path d="M44.9863 44C43.7489 44 42.8743 43.744 42.3623 43.232C41.8929 42.72 41.6583 41.9093 41.6583 40.8V3.744C41.6583 2.63467 41.9143 1.824 42.4263 1.312C42.9383 0.757332 43.7916 0.48 44.9863 0.48H60.6663C66.6396 0.48 71.0343 1.73867 73.8503 4.256C76.6663 6.77333 78.0743 10.528 78.0743 15.52C78.0743 20.4693 76.6663 24.2027 73.8503 26.72C71.0769 29.1947 66.6823 30.432 60.6663 30.432H54.5863V40.8C54.5863 41.9093 54.3303 42.72 53.8183 43.232C53.3063 43.744 52.4316 44 51.1943 44H44.9863ZM59.6423 21.152C61.3916 21.152 62.7356 20.6827 63.6743 19.744C64.6556 18.8053 65.1463 17.3973 65.1463 15.52C65.1463 13.6 64.6556 12.1707 63.6743 11.232C62.7356 10.2933 61.3916 9.824 59.6423 9.824H54.5863V21.152H59.6423Z" fill="white"/>
</svg>
