<svg width="460" height="476" viewBox="0 0 460 476" fill="none" xmlns="http://www.w3.org/2000/svg">
<g opacity="0.4">
<path d="M437.27 312.891C466.18 329.551 466.18 356.501 437.76 373.161L282.43 463.321C254.01 479.981 207.46 479.981 178.55 463.321L22.2402 373.161C-6.66978 356.501 -6.66974 329.551 21.7503 312.891L177.08 222.731C205.5 206.071 252.05 206.071 280.96 222.731L437.27 312.891Z" fill="#00357C" fill-opacity="0.4"/>
</g>
<path d="M459.32 297.211H0.679688V313.381C0.679688 324.161 8.02966 334.941 22.2397 343.271L178.55 433.431C207.46 450.091 254.01 450.091 282.43 433.431L437.76 343.271C451.97 334.941 459.32 324.161 459.32 313.381V297.211Z" fill="url(#paint0_linear_50_1427)"/>
<path d="M437.27 266.831C466.18 283.491 466.18 310.441 437.76 327.101L282.43 417.261C254.01 433.921 207.46 433.921 178.55 417.261L22.2402 327.101C-6.66978 310.441 -6.66974 283.491 21.7503 266.831L177.08 176.671C205.5 160.011 252.05 160.011 280.96 176.671L437.27 266.831Z" fill="#F3F8FE"/>
<path d="M397.58 272.71C421.1 285.94 421.1 307.99 398.07 321.22L272.14 394.23C249.11 407.46 211.38 407.46 187.86 394.23L61.44 321.22C37.92 307.99 37.92 285.94 60.95 272.71L187.37 199.7C210.4 186.47 248.13 186.47 271.65 199.7L397.58 272.71Z" stroke="#0CFFFC" stroke-width="0.5" stroke-miterlimit="10"/>
<path d="M382.881 168.34H76.6309V287.9C76.6309 295.25 81.5309 302.6 91.3309 307.99L195.701 368.26C214.811 379.53 246.171 379.53 265.281 368.26L369.161 307.99C378.471 302.6 383.371 295.25 383.371 287.9V168.34H382.881Z" fill="url(#paint1_linear_50_1427)"/>
<path d="M368.18 148.25C387.29 159.52 387.29 177.16 368.67 188.43L264.79 248.7C245.68 259.97 214.81 259.97 195.21 248.7L90.8403 188.43C71.7303 177.16 71.7303 159.52 90.8403 148.25L194.72 87.9798C213.83 76.7098 244.7 76.7098 263.81 87.9798L368.18 148.25Z" fill="#BCD0F1"/>
<path d="M229.51 80.1406V82.5906C242.25 82.5906 254.01 85.5306 262.83 90.4306L367.2 150.701C375.53 155.601 380.43 161.971 380.43 168.831C380.43 175.691 376.02 182.061 367.2 186.471L263.32 246.741C254.5 252.131 242.74 254.581 230 254.581C217.26 254.581 205.5 251.641 196.68 246.741L92.3103 186.471C83.9803 181.571 79.0802 175.201 79.0802 168.341C79.0802 161.481 83.4903 155.111 92.3103 150.211L196.19 89.9406C205.01 84.5506 216.77 82.1006 229.51 82.1006V80.1406ZM229.51 80.1406C216.77 80.1406 204.52 83.0806 194.72 88.4706L90.8403 148.741C71.7303 160.011 71.7303 177.651 90.8403 188.921L195.7 248.701C205.5 254.091 217.75 257.031 230.49 257.031C243.23 257.031 255.48 254.091 265.28 248.701L369.16 188.431C388.27 177.161 388.27 159.521 368.67 148.251L264.3 87.9806C254.5 82.5906 241.76 80.1406 229.51 80.1406Z" fill="url(#paint2_linear_50_1427)"/>
<path d="M180.511 289.86C182.961 291.33 184.431 294.27 184.431 297.21V319.75C184.431 322.2 182.471 323.67 180.021 322.2L101.131 276.63C98.6809 275.16 97.2109 272.22 97.2109 269.28V246.74C97.2109 244.29 99.1709 242.82 101.621 244.29L180.511 289.86Z" fill="#0CFFFC"/>
<path d="M184.431 319.75L105.541 274.18C103.091 272.71 101.621 269.77 101.621 266.83V244.29C99.6611 243.31 97.7012 244.29 97.7012 246.74V269.28C97.7012 271.73 99.6611 275.16 101.621 276.63L180.511 322.2C182.961 323.67 184.921 322.69 184.431 319.75Z" fill="#1964BA"/>
<path d="M104.071 235.469L107.501 233.509C107.991 233.019 108.481 232.039 108.481 231.059C108.481 228.609 106.521 225.669 104.561 224.199C103.581 223.709 102.601 223.709 101.621 223.709L98.1914 225.669L104.071 235.469Z" fill="url(#paint3_linear_50_1427)"/>
<path d="M104.241 235.269C105.65 234.461 105.591 231.713 104.11 229.131C102.629 226.549 100.287 225.11 98.8783 225.918C97.4699 226.726 97.5287 229.474 99.0096 232.056C100.491 234.638 102.833 236.077 104.241 235.269Z" fill="#2185F8"/>
<path d="M103.267 233.567C104.206 233.029 104.203 231.26 103.261 229.617C102.318 227.974 100.793 227.078 99.8544 227.617C98.9154 228.155 98.9183 229.924 99.8607 231.567C100.803 233.21 102.328 234.106 103.267 233.567Z" fill="#0CFFFC"/>
<path d="M120.243 244.289L123.673 242.329C124.163 241.839 124.653 240.859 124.653 239.879C124.653 237.429 122.693 234.489 120.733 233.019C119.753 232.529 118.773 232.529 117.793 232.529L114.363 234.489L120.243 244.289Z" fill="url(#paint4_linear_50_1427)"/>
<path d="M120.452 244.517C121.861 243.709 121.802 240.961 120.321 238.379C118.84 235.797 116.498 234.358 115.089 235.166C113.681 235.974 113.74 238.722 115.221 241.304C116.702 243.886 119.044 245.325 120.452 244.517Z" fill="#2185F8"/>
<path d="M119.476 242.817C120.415 242.278 120.412 240.51 119.47 238.867C118.528 237.224 117.002 236.328 116.063 236.867C115.125 237.405 115.127 239.174 116.07 240.817C117.012 242.46 118.537 243.356 119.476 242.817Z" fill="#FFE200"/>
<path d="M184.921 297.211C184.921 294.761 182.961 291.331 181.001 289.861L102.111 244.291C101.131 243.801 100.151 243.801 99.6607 243.801L73.6908 252.131C72.7108 252.621 72.2207 253.601 72.2207 255.071V281.041C72.2207 283.981 74.1807 287.901 77.1207 289.371L164.341 341.801C166.301 342.781 168.261 341.801 168.751 340.821C172.671 335.921 184.431 321.711 184.431 321.711C184.431 321.711 185.411 321.221 185.411 319.261L184.921 297.211Z" fill="url(#paint5_linear_50_1427)"/>
<path d="M119.75 131.59L293.21 232.53L293.7 351.6L344.17 381.98" stroke="#7AB6FB" stroke-width="0.25" stroke-miterlimit="10" stroke-linejoin="round"/>
<path d="M131.02 125.221L303.99 226.161L304.479 345.231L354.95 375.611" stroke="#7AB6FB" stroke-width="0.25" stroke-miterlimit="10" stroke-linejoin="round"/>
<path d="M141.801 118.85L315.261 219.79L315.751 338.86L365.731 369.24" stroke="#7AB6FB" stroke-width="0.25" stroke-miterlimit="10" stroke-linejoin="round"/>
<path d="M152.58 112.48L326.04 213.42L326.53 332.49L377 362.87" stroke="#7AB6FB" stroke-width="0.25" stroke-miterlimit="10" stroke-linejoin="round"/>
<path d="M163.85 106.109L336.82 207.049L337.8 326.609L387.779 356.499" stroke="#7AB6FB" stroke-width="0.25" stroke-miterlimit="10" stroke-linejoin="round"/>
<path d="M174.631 99.7402L348.091 200.68L348.581 320.24L398.561 350.13" stroke="#7AB6FB" stroke-width="0.25" stroke-miterlimit="10" stroke-linejoin="round"/>
<path fill-rule="evenodd" clip-rule="evenodd" d="M202.56 103.661C201.58 102.191 201.09 100.721 201.09 99.2505V4.19052C201.09 1.25052 205.01 -0.219484 206.97 1.25052L325.06 69.3605C327.51 70.8305 329.47 74.2605 329.47 76.7105V171.77C329.47 173.73 327.51 176.18 325.55 175.69" fill="#DCE7F2"/>
<path fill-rule="evenodd" clip-rule="evenodd" d="M325.06 176.671V180.591C325.06 181.571 324.57 182.061 323.59 182.551L252.54 223.711C250.58 224.691 246.66 224.691 244.21 223.221L126.12 155.111C123.67 153.641 122.69 147.271 125.14 145.801" fill="#DCE7F2"/>
<path fill-rule="evenodd" clip-rule="evenodd" d="M202.56 104.15C201.58 102.68 201.09 101.21 201.09 99.74V4.68005C201.09 1.74005 203.05 0.760052 205.5 2.23005L323.59 70.34C326.04 71.81 328 75.24 328 77.69V172.75C328 174.71 326.53 176.18 325.06 175.69" fill="url(#paint6_linear_50_1427)"/>
<path fill-rule="evenodd" clip-rule="evenodd" d="M324.57 115.421V80.1409C324.57 79.6509 324.08 79.1609 323.59 78.6709L206.48 11.5409C205.99 11.0509 205.5 11.5409 205.5 12.0309V104.151C205.5 104.641 205.99 105.131 206.48 105.621L323.59 173.241C324.08 173.731 324.57 173.241 324.57 172.751V115.421Z" fill="#1964BA"/>
<path fill-rule="evenodd" clip-rule="evenodd" d="M170.711 175.69L126.611 150.21C124.161 148.74 123.671 146.78 126.121 145.31L197.171 104.15C199.131 103.17 203.051 103.17 205.501 104.64L323.591 172.75C326.041 174.22 326.531 176.18 324.081 177.65L253.03 218.81C251.07 219.79 247.151 219.79 244.701 218.32L202.561 193.82" fill="url(#paint7_linear_50_1427)"/>
<path opacity="0.2" fill-rule="evenodd" clip-rule="evenodd" d="M173.65 168.83L212.36 191.37C213.34 191.86 214.81 191.86 215.79 191.37L233.43 181.08C234.41 180.59 234.41 179.61 233.92 179.12L195.21 156.58C194.23 156.09 192.76 156.09 191.78 156.58L174.14 166.87C172.67 167.85 172.67 168.34 173.65 168.83Z" fill="#004680"/>
<path d="M179.529 181.57L199.619 193.33C200.109 193.82 201.089 193.82 201.579 193.82H202.069C202.069 193.33 201.579 192.84 201.089 192.35L173.649 176.67C173.159 176.18 172.179 176.18 171.689 176.18H171.199C171.199 176.67 171.689 177.16 172.179 177.65L173.159 178.14L177.079 180.59L178.059 181.08L179.529 181.57Z" fill="url(#paint8_linear_50_1427)"/>
<path opacity="0.2" fill-rule="evenodd" clip-rule="evenodd" d="M274.59 196.271L268.709 192.841C268.219 192.841 268.219 192.351 268.709 192.351L270.669 191.371C271.159 191.371 271.649 191.371 271.649 191.371L277.529 194.801C278.019 194.801 278.019 195.291 277.529 195.291L275.569 196.271C275.569 196.271 275.079 196.271 274.59 196.271ZM275.569 187.451L267.729 183.04C267.239 183.04 267.239 182.551 267.729 182.551L273.119 179.611C273.609 179.611 274.099 179.611 274.099 179.611L287.819 187.451C288.309 187.451 288.309 187.941 287.819 187.941L282.429 190.881C281.939 190.881 281.449 190.881 281.449 190.881L277.529 188.431M289.29 186.471L278.999 180.59C278.509 180.59 278.509 180.101 278.999 180.101L284.39 177.161C284.88 177.161 285.369 177.161 285.369 177.161L295.659 183.04C296.149 183.04 296.149 183.531 295.659 183.531L290.269 186.471C290.269 186.961 289.78 186.961 289.29 186.471ZM297.129 182.061L291.74 179.12C291.25 179.12 291.25 178.631 291.74 178.631L297.129 175.69C297.619 175.69 298.109 175.69 298.109 175.69L303.499 178.631C303.989 178.631 303.989 179.12 303.499 179.12L298.109 182.061C298.109 182.061 297.619 182.061 297.129 182.061ZM289.29 177.651L283.899 174.711C283.409 174.711 283.409 174.22 283.899 174.22L289.29 171.281C289.78 171.281 290.269 171.281 290.269 171.281L295.659 174.22C296.149 174.22 296.149 174.711 295.659 174.711L290.269 177.651C290.269 177.651 289.78 177.651 289.29 177.651ZM278.999 171.281L276.059 169.811C275.569 169.811 275.569 169.32 276.059 169.32L281.449 166.381C281.939 166.381 282.429 166.381 282.429 166.381L287.819 169.32C288.309 169.32 288.309 169.811 287.819 169.811L282.429 172.75C281.939 172.75 281.449 172.75 281.449 172.75M273.609 168.34L268.219 165.4C267.729 165.4 267.729 164.911 268.219 164.911L273.119 161.97C273.609 161.97 274.099 161.97 274.099 161.97L279.49 164.911C279.979 164.911 279.979 165.4 279.49 165.4L274.099 168.34C274.589 168.34 274.099 168.34 273.609 168.34ZM265.769 163.931L260.379 160.99C259.889 160.99 259.889 160.5 260.379 160.5L265.279 157.561C265.769 157.561 266.259 157.561 266.259 157.561L271.649 160.5C272.139 160.5 272.139 160.99 271.649 160.99L266.749 163.931C266.749 163.931 266.259 163.931 265.769 163.931ZM257.929 159.52L252.539 156.58C252.049 156.58 252.049 156.09 252.539 156.09L257.439 153.15C257.929 153.15 258.419 153.15 258.419 153.15L263.809 156.09C264.299 156.09 264.299 156.58 263.809 156.58L258.909 159.52C258.909 159.52 258.419 159.52 257.929 159.52ZM250.089 154.62L244.699 151.68C244.209 151.68 244.209 151.19 244.699 151.19L249.599 148.25C250.089 148.25 250.579 148.25 250.579 148.25L255.969 151.19C256.459 151.19 256.459 151.68 255.969 151.68L251.069 154.62C251.069 155.11 250.579 155.11 250.089 154.62ZM242.249 150.21L236.859 147.27C236.369 147.27 236.369 146.78 236.859 146.78L241.759 143.84C242.249 143.84 242.739 143.84 242.739 143.84L248.129 146.78C248.619 146.78 248.619 147.27 248.129 147.27L243.229 150.21C243.229 150.7 242.739 150.7 242.249 150.21ZM234.409 145.8L229.019 142.86C228.529 142.86 228.529 142.37 229.019 142.37L233.919 139.43C234.409 139.43 234.899 139.43 234.899 139.43L240.289 142.37C240.779 142.37 240.779 142.86 240.289 142.86L235.389 145.8C235.389 145.8 234.899 145.8 234.409 145.8ZM228.039 141.39C227.549 141.39 227.059 141.39 227.059 141.39L221.669 138.45C221.179 138.45 221.179 137.96 221.669 137.96L226.569 135.02C227.059 135.02 227.549 135.02 227.549 135.02L232.939 137.96C233.429 137.96 233.429 138.45 232.939 138.45L228.039 141.39ZM220.199 136.98C219.709 136.98 219.219 136.98 219.219 136.98L213.829 134.04C213.339 134.04 213.339 133.55 213.829 133.55L218.729 130.61C219.219 130.61 219.709 130.61 219.709 130.61L225.099 133.55C225.589 133.55 225.589 134.04 225.099 134.04L220.199 136.98ZM212.359 132.57C211.869 132.57 211.379 132.57 211.379 132.57L206.479 129.63C205.989 129.63 205.989 129.14 206.479 129.14L211.379 126.2C211.869 126.2 212.359 126.2 212.359 126.2L217.749 129.14C218.239 129.14 218.239 129.63 217.749 129.63L212.359 132.57ZM204.519 128.16C204.029 128.16 203.539 128.16 203.539 128.16L198.639 125.22C198.639 125.22 198.149 124.73 198.639 124.73L203.539 121.79C204.029 121.79 204.519 121.79 204.519 121.79L209.419 124.73C209.909 124.73 209.909 125.22 209.419 125.22L204.519 128.16ZM197.169 123.26C196.679 123.26 196.189 123.26 196.189 123.26L188.349 118.85C188.349 118.85 187.859 118.36 188.349 118.36L193.249 115.42C193.739 115.42 194.229 115.42 194.229 115.42L202.069 119.83C202.559 119.83 202.559 120.32 202.069 120.32L197.169 123.26ZM304.969 177.651L299.579 174.711C299.089 174.711 299.089 174.22 299.579 174.22L302.519 172.75C303.009 172.75 303.499 172.75 303.499 172.75L308.89 175.69C309.38 175.69 309.38 176.181 308.89 176.181L305.949 177.651C305.949 177.651 305.459 177.651 304.969 177.651ZM297.129 172.75L291.74 169.811C291.25 169.811 291.25 169.32 291.74 169.32L294.679 167.85C295.169 167.85 295.659 167.85 295.659 167.85L301.049 170.79C301.539 170.79 301.539 171.281 301.049 171.281L298.109 172.75C298.109 173.241 297.619 173.241 297.129 172.75ZM289.29 168.34L283.899 165.4C283.409 165.4 283.409 164.911 283.899 164.911L286.84 163.44C287.33 163.44 287.819 163.44 287.819 163.44L293.209 166.381C293.699 166.381 293.699 166.87 293.209 166.87L290.269 168.34C290.269 168.34 289.78 168.34 289.29 168.34ZM281.449 163.931L276.059 160.99C275.569 160.99 275.569 160.5 276.059 160.5L278.999 159.03C279.489 159.03 279.979 159.03 279.979 159.03L285.369 161.97C285.859 161.97 285.859 162.461 285.369 162.461L282.429 163.931C282.429 163.931 281.939 163.931 281.449 163.931ZM273.609 159.52L268.219 156.58C267.729 156.58 267.729 156.09 268.219 156.09L271.159 154.62C271.649 154.62 272.139 154.62 272.139 154.62L277.529 157.561C278.019 157.561 278.019 158.05 277.529 158.05L274.59 159.52C274.59 159.52 274.099 159.52 273.609 159.52ZM265.769 154.62L260.379 151.68C259.889 151.68 259.889 151.19 260.379 151.19L263.319 149.72C263.809 149.72 264.299 149.72 264.299 149.72L269.689 152.66C270.179 152.66 270.179 153.15 269.689 153.15L266.749 154.62C266.749 155.11 266.259 155.11 265.769 154.62ZM257.929 150.21L252.539 147.27C252.049 147.27 252.049 146.78 252.539 146.78L255.479 145.31C255.969 145.31 256.459 145.31 256.459 145.31L261.849 148.25C262.339 148.25 262.339 148.74 261.849 148.74L258.909 150.21C258.909 150.7 258.419 150.7 257.929 150.21ZM250.089 145.8L244.699 142.86C244.209 142.86 244.209 142.37 244.699 142.37L247.639 140.9C248.129 140.9 248.619 140.9 248.619 140.9L254.009 143.84C254.499 143.84 254.499 144.33 254.009 144.33L251.559 145.8C251.069 145.8 250.579 145.8 250.089 145.8ZM242.249 141.39L236.859 138.45C236.369 138.45 236.369 137.96 236.859 137.96L239.799 136.49C240.289 136.49 240.779 136.49 240.779 136.49L246.169 139.43C246.659 139.43 246.659 139.92 246.169 139.92L243.229 141.39C243.229 141.39 242.739 141.39 242.249 141.39ZM235.879 136.98C235.389 136.98 234.899 136.98 234.899 136.98L229.509 134.04C229.019 134.04 229.019 133.55 229.509 133.55L232.449 132.08C232.939 132.08 233.429 132.08 233.429 132.08L238.819 135.02C239.309 135.02 239.309 135.51 238.819 135.51L235.879 136.98ZM228.039 132.57C227.549 132.57 227.059 132.57 227.059 132.57L221.669 129.63C221.179 129.63 221.179 129.14 221.669 129.14L224.609 127.67C225.099 127.67 225.589 127.67 225.589 127.67L230.979 130.61C231.469 130.61 231.469 131.1 230.979 131.1L228.039 132.57ZM220.199 127.67C219.709 127.67 219.219 127.67 219.219 127.67L214.319 124.73C213.829 124.73 213.829 124.24 214.319 124.24L216.769 122.77C217.259 122.77 217.749 122.77 217.749 122.77L223.139 125.71C223.629 125.71 223.629 126.2 223.139 126.2L220.199 127.67ZM212.359 123.26C211.869 123.26 211.379 123.26 211.379 123.26L206.479 120.32C205.989 120.32 205.989 119.83 206.479 119.83L208.929 118.36C209.419 118.36 209.909 118.36 209.909 118.36L214.809 121.3C215.299 121.3 215.299 121.79 214.809 121.79L212.359 123.26ZM205.009 118.85C204.519 118.85 204.029 118.85 204.029 118.85L196.189 114.44C196.189 114.44 195.699 113.95 196.189 113.95L198.639 112.48C199.129 112.48 199.619 112.48 199.619 112.48L207.459 116.89C207.949 116.89 207.949 117.38 207.459 117.38L205.009 118.85ZM197.169 126.2C197.659 126.2 197.659 126.69 197.169 126.69L192.269 129.63C191.779 129.63 191.289 129.63 191.289 129.63L180.509 123.26C180.509 123.26 180.019 122.77 180.509 122.77L185.409 119.83C185.899 119.83 186.389 119.83 186.389 119.83L197.169 126.2ZM193.249 133.06C193.739 133.06 193.739 133.55 193.249 133.55L188.349 136.49C187.859 136.49 187.369 136.49 187.369 136.49L172.669 128.16C172.669 128.16 172.179 127.67 172.669 127.67L177.569 124.73C178.059 124.73 178.549 124.73 178.549 124.73L193.249 133.06ZM176.099 131.59C176.099 132.08 176.099 132.08 176.099 131.59C176.099 132.08 176.099 132.08 176.099 132.08L171.199 135.02C170.709 135.02 170.219 135.02 170.219 135.02L165.319 132.08C165.319 132.08 164.829 131.59 165.319 131.59L170.219 128.65C170.709 128.65 171.199 128.65 171.199 128.65L176.099 131.59ZM177.079 133.06C177.569 133.06 178.059 133.06 178.059 133.06L182.959 136C182.959 136 183.449 136.49 182.959 136.49L178.059 139.43C177.569 139.43 177.079 139.43 177.079 139.43L172.179 136.49C172.179 136.49 171.689 136 172.179 136L177.079 133.06ZM184.919 137.96C185.409 137.96 185.899 137.96 185.899 137.96L192.269 141.88C192.759 141.88 192.759 142.37 192.269 142.37L187.369 145.31C186.879 145.31 186.389 145.31 186.389 145.31L180.019 141.39C179.529 141.39 179.529 140.9 180.019 140.9L184.919 137.96ZM198.639 134.04L193.739 131.1C193.249 131.1 193.249 130.61 193.739 130.61L198.639 127.67C199.129 127.67 199.619 127.67 199.619 127.67L204.519 130.61C205.009 130.61 205.009 131.1 204.519 131.1L199.619 134.04C199.619 134.53 199.129 134.53 198.639 134.04ZM189.819 137.47L194.719 134.53C195.209 134.53 195.699 134.53 195.699 134.53L200.599 137.47C201.089 137.47 201.089 137.96 200.599 137.96L195.699 140.9C195.209 140.9 194.719 140.9 194.719 140.9L189.819 137.96C189.329 137.96 189.329 137.47 189.819 137.47ZM194.229 142.86C194.719 142.86 195.209 142.86 195.209 142.86L202.559 147.27C203.049 147.27 203.049 147.76 202.559 147.76L197.659 150.7C197.169 150.7 196.679 150.7 196.679 150.7L189.329 146.29C188.839 146.29 188.839 145.8 189.329 145.8L194.229 142.86ZM214.319 136.49C214.809 136.49 215.299 136.49 215.299 136.49L220.689 139.43C221.179 139.43 221.179 139.92 220.689 139.92L215.789 142.86C215.299 142.86 214.809 142.86 214.809 142.86L209.419 139.92C208.929 139.92 208.929 139.43 209.419 139.43L214.319 136.49ZM206.479 138.45L201.579 135.51C201.089 135.51 201.089 135.02 201.579 135.02L206.479 132.08C206.969 132.08 207.459 132.08 207.459 132.08L212.359 135.02C212.849 135.02 212.849 135.51 212.359 135.51L207.459 138.45C207.459 138.94 206.969 138.94 206.479 138.45ZM208.929 142.37L204.029 145.31C203.539 145.31 203.049 145.31 203.049 145.31L198.149 142.37C197.659 142.37 197.659 141.88 198.149 141.88L203.049 138.94C203.539 138.94 204.029 138.94 204.029 138.94L208.929 141.88V142.37ZM205.009 146.29L209.909 143.35C210.399 143.35 210.889 143.35 210.889 143.35L216.279 146.29C216.769 146.29 216.769 146.78 216.279 146.78L211.379 149.72C210.889 149.72 210.399 149.72 210.399 149.72L205.499 146.78C205.009 146.78 205.009 146.29 205.009 146.29ZM204.519 148.74C205.009 148.74 205.499 148.74 205.499 148.74L238.329 167.85C238.819 167.85 238.819 168.34 238.329 168.34L233.429 171.281C232.939 171.281 232.449 171.281 232.449 171.281L199.619 152.17C199.129 152.17 199.129 151.68 199.619 151.68L204.519 148.74ZM246.169 154.62L251.559 157.561C252.049 157.561 252.049 158.05 251.559 158.05L246.659 160.99C246.169 160.99 245.679 160.99 245.679 160.99L240.289 158.05C239.799 158.05 239.799 157.561 240.289 157.561L245.189 154.62C245.679 154.13 246.169 154.13 246.169 154.62ZM239.799 160.5L234.899 163.44C234.409 163.44 233.919 163.44 233.919 163.44L228.529 160.5C228.039 160.5 228.039 160.011 228.529 160.011L233.429 157.07C233.919 157.07 234.409 157.07 234.409 157.07L239.799 160.011C240.289 160.011 240.289 160.5 239.799 160.5ZM238.819 149.72L244.209 152.66C244.699 152.66 244.699 153.15 244.209 153.15L239.309 156.09C238.819 156.09 238.329 156.09 238.329 156.09L232.939 153.15C232.449 153.15 232.449 152.66 232.939 152.66L237.839 149.72C237.839 149.72 238.329 149.72 238.819 149.72ZM231.959 156.09L227.059 159.03C226.569 159.03 226.079 159.03 226.079 159.03L220.689 156.09C220.199 156.09 220.199 155.6 220.689 155.6L225.589 152.66C226.079 152.66 226.569 152.66 226.569 152.66L231.959 155.6C232.449 155.6 232.449 155.6 231.959 156.09ZM229.509 145.31C229.999 145.31 230.489 145.31 230.489 145.31L235.879 148.25C236.369 148.25 236.369 148.74 235.879 148.74L230.979 151.68C230.489 151.68 229.999 151.68 229.999 151.68L224.609 148.74C224.119 148.74 224.119 148.25 224.609 148.25L229.509 145.31ZM222.159 147.76L216.769 144.82C216.279 144.82 216.279 144.33 216.769 144.33L221.669 141.39C222.159 141.39 222.649 141.39 222.649 141.39L228.039 144.33C228.529 144.33 228.529 144.82 228.039 144.82L223.139 147.76C222.649 147.76 222.159 147.76 222.159 147.76ZM224.119 151.68L219.219 154.62C218.729 154.62 218.239 154.62 218.239 154.62L212.849 151.68C212.359 151.68 212.359 151.19 212.849 151.19L217.749 148.25C218.239 148.25 218.729 148.25 218.729 148.25L224.119 151.19C224.609 151.19 224.609 151.19 224.119 151.68ZM236.369 164.42L241.269 161.48C241.759 161.48 242.249 161.48 242.249 161.48L247.639 164.42C248.129 164.42 248.129 164.911 247.639 164.911L242.739 167.85C242.249 167.85 241.759 167.85 241.759 167.85L236.369 164.911C235.879 164.911 235.879 164.42 236.369 164.42ZM241.269 169.32L248.619 173.731C249.109 173.731 249.109 174.22 248.619 174.22L243.719 177.161C243.229 177.161 242.739 177.161 242.739 177.161L235.389 172.75C234.899 172.75 234.899 172.261 235.389 172.261L240.289 169.32C240.289 169.32 240.779 169.32 241.269 169.32ZM261.849 163.44L267.239 166.381C267.729 166.381 267.729 166.87 267.239 166.87L262.339 169.811C261.849 169.811 261.359 169.811 261.359 169.811L255.969 166.87C255.479 166.87 255.479 166.381 255.969 166.381L260.869 163.44C261.359 163.44 261.849 163.44 261.849 163.44ZM248.129 162.461C247.639 162.461 247.639 161.97 248.129 161.97L253.029 159.03C253.519 159.03 254.009 159.03 254.009 159.03L259.399 161.97C259.889 161.97 259.889 162.461 259.399 162.461L254.499 165.4C254.009 165.4 253.519 165.4 253.519 165.4L248.129 162.461ZM255.479 169.32L250.579 172.261C250.089 172.261 249.599 172.261 249.599 172.261L244.209 169.32C243.719 169.32 243.719 168.831 244.209 168.831L249.109 165.89C249.599 165.89 250.089 165.89 250.089 165.89L255.479 168.831C255.969 168.831 255.969 169.32 255.479 169.32ZM256.949 170.3C257.439 170.3 257.929 170.3 257.929 170.3L263.319 173.24C263.809 173.24 263.809 173.731 263.319 173.731L258.419 176.671C257.929 176.671 257.439 176.671 257.439 176.671L252.049 173.731C251.559 173.731 251.559 173.24 252.049 173.24L256.949 170.3ZM251.069 175.201L256.459 178.631C256.949 178.631 256.949 179.12 256.459 179.12L251.559 182.061C251.069 182.061 250.579 182.061 250.579 182.061L245.189 178.631C244.699 178.631 244.699 178.14 245.189 178.14L250.089 175.201C250.579 175.201 250.579 175.201 251.069 175.201ZM263.319 171.77C262.829 171.77 262.829 171.281 263.319 171.281L268.219 168.34C268.709 168.34 269.199 168.34 269.199 168.34L274.59 171.281C275.079 171.281 275.079 171.77 274.59 171.77L269.199 174.711C268.709 174.711 268.219 174.711 268.219 174.711L263.319 171.77ZM271.159 175.69L276.549 172.75C277.039 172.75 277.529 172.75 277.529 172.75L282.919 175.69C283.409 175.69 283.409 176.181 282.919 176.181L277.529 179.12C277.039 179.12 276.549 179.12 276.549 179.12L271.159 176.181V175.69ZM264.789 181.571L259.399 178.631C258.909 178.631 258.909 178.14 259.399 178.14L264.299 175.201C264.789 175.201 265.279 175.201 265.279 175.201L270.669 178.14C271.159 178.14 271.159 178.631 270.669 178.631L265.769 181.571C265.769 181.571 265.279 181.571 264.789 181.571ZM255.969 182.061L261.359 185.491C261.849 185.491 261.849 185.981 261.359 185.981L259.889 186.961C259.399 186.961 258.909 186.961 258.909 186.961L253.519 183.531C253.029 183.531 253.029 183.04 253.519 183.04L254.989 182.061C254.989 182.061 255.479 182.061 255.969 182.061ZM267.729 184.511L273.119 187.941C273.609 187.941 273.609 188.431 273.119 188.431L271.649 189.411C271.159 189.411 270.669 189.411 270.669 189.411L265.279 185.981C264.789 185.981 264.789 185.491 265.279 185.491L266.749 184.511C266.749 184.511 267.239 184.511 267.729 184.511ZM263.809 186.961L269.199 190.391C269.689 190.391 269.689 190.881 269.199 190.881L267.729 191.861C267.239 191.861 266.749 191.861 266.749 191.861L261.359 188.431C260.869 188.431 260.869 187.941 261.359 187.941L262.829 186.961C262.829 186.471 263.319 186.471 263.809 186.961Z" fill="#004680"/>
<path opacity="0.3" d="M305.461 183.04L195.211 119.83C193.251 118.85 191.781 116.4 191.781 114.44L191.291 23.2998C191.291 21.3398 192.761 20.8498 194.721 21.8298L304.971 85.0398C306.931 86.0198 308.401 88.4698 308.401 90.4298L308.891 181.08C309.381 183.04 307.421 184.02 305.461 183.04Z" fill="white"/>
<path opacity="0.3" d="M310.85 178.14L200.6 114.93C198.64 113.95 197.17 111.5 197.17 109.54L196.68 18.8897C196.68 16.9297 198.15 16.4397 200.11 17.4197L310.36 80.6297C312.32 81.6097 313.79 84.0597 313.79 86.0197L314.28 176.67C314.77 178.63 312.81 179.12 310.85 178.14Z" fill="white"/>
<path opacity="0.8" d="M300.07 187.593L189.82 124.383C187.86 123.403 186.39 120.953 186.39 118.993L185.9 28.3428C185.9 26.3828 187.37 25.8928 189.33 26.8728L299.58 90.0828C301.54 91.0628 303.01 93.5128 303.01 95.4728L303.5 186.123C303.5 188.083 302.03 188.573 300.07 187.593Z" fill="white"/>
<path d="M189.33 26.3826C187.37 25.4026 185.9 25.8926 185.9 27.8526V37.6526L303.5 105.273V94.9826C303.5 93.5126 302.52 91.5526 300.56 90.0826L254.5 63.6226L189.33 26.3826Z" fill="url(#paint9_linear_50_1427)"/>
<path d="M191.454 36.1087C192.103 35.6207 191.97 34.3484 191.156 33.267C190.343 32.1856 189.158 31.7046 188.509 32.1926C187.86 32.6806 187.993 33.9528 188.807 35.0342C189.62 36.1156 190.805 36.5967 191.454 36.1087Z" fill="white"/>
<path d="M196.212 39.1341C196.861 38.6461 196.728 37.3737 195.914 36.2924C195.101 35.211 193.915 34.73 193.267 35.218C192.618 35.706 192.751 36.9782 193.564 38.0596C194.378 39.141 195.563 39.6221 196.212 39.1341Z" fill="white"/>
<path d="M201.263 42.552C201.912 42.064 201.778 40.7917 200.965 39.7103C200.152 38.6289 198.966 38.1479 198.317 38.636C197.669 39.124 197.802 40.3962 198.615 41.4776C199.429 42.559 200.614 43.04 201.263 42.552Z" fill="white"/>
<path d="M192.064 54.6067L209.704 64.4067C209.704 64.4067 210.194 64.4067 210.194 63.9167C210.194 63.4267 210.194 63.4267 209.704 62.9367L192.064 53.1367C192.064 53.1367 191.574 53.1367 191.574 53.6267C191.574 54.1167 192.064 54.1167 192.064 54.6067Z" fill="#CBCBCB"/>
<path d="M192.064 57.056L209.704 66.856C210.194 66.856 210.194 66.856 210.194 66.366C210.194 65.876 210.194 65.8759 209.704 65.3859L192.064 55.5859C191.574 55.5859 191.574 55.586 191.574 56.076C191.574 56.566 192.064 57.056 192.064 57.056Z" fill="#CBCBCB"/>
<path d="M192.064 59.9973L209.704 69.7973C210.194 69.7973 210.194 69.7973 210.194 69.3073C210.194 68.8173 210.194 68.8173 209.704 68.3273L192.064 58.5273C191.574 58.5273 191.574 58.5273 191.574 59.0173C191.574 59.5073 192.064 59.9973 192.064 59.9973Z" fill="#CBCBCB"/>
<path d="M219.034 77.9744C221.974 79.4444 224.424 78.4644 224.424 75.0344C224.424 74.5444 224.424 74.0545 224.424 73.5645C224.914 73.5645 225.404 73.5645 225.894 73.5645C225.894 74.5445 226.384 75.5245 226.384 76.0145C226.384 80.4245 223.444 82.3844 219.524 79.9344H219.034V77.9744Z" fill="white"/>
<path d="M219.034 65.7243C217.074 64.7443 215.604 64.7443 214.624 65.7243L213.154 63.7643C214.624 62.2943 216.584 61.8043 219.034 63.2743C221.974 65.2343 224.914 68.6643 225.894 72.5843C225.404 72.5843 224.914 72.5843 224.424 72.5843C223.444 70.6243 221.484 67.1943 219.034 65.7243Z" fill="url(#paint10_linear_50_1427)"/>
<path d="M212.174 67.6839C212.174 66.2139 212.664 64.7439 213.154 64.2539L214.624 66.214C214.134 66.7039 213.644 67.6839 213.644 69.1539C213.644 72.0939 215.604 76.0139 218.544 77.9739V79.9339C215.114 77.4839 212.174 72.0939 212.174 67.6839Z" fill="url(#paint11_linear_50_1427)"/>
<path d="M257.651 117.131V115.661L247.361 109.291V110.761L257.651 117.131Z" fill="#C7E3FC"/>
<path d="M225.801 113.212C229.721 112.232 234.131 111.252 236.581 113.702C237.561 114.682 238.051 115.662 238.541 116.642C241.971 121.542 248.831 122.032 255.201 121.052C261.081 120.072 267.451 118.112 273.331 119.092C277.741 120.072 281.661 122.522 285.581 124.482C289.501 126.442 294.401 127.912 298.811 126.442" stroke="url(#paint12_linear_50_1427)" stroke-width="0.25" stroke-miterlimit="10"/>
<path d="M284.601 132.811L279.211 129.381V165.641L284.601 169.071V132.811Z" fill="url(#paint13_linear_50_1427)"/>
<path d="M240.501 125.952L235.111 122.521V139.181L240.501 142.612V125.952Z" fill="url(#paint14_linear_50_1427)"/>
<path d="M232.171 126.93L226.781 123.5V133.79L232.171 137.22V126.93Z" fill="url(#paint15_linear_50_1427)"/>
<path d="M274.8 136.241L269.41 132.811V159.271L274.8 162.701V136.241Z" fill="url(#paint16_linear_50_1427)"/>
<path d="M264.511 134.772L259.121 131.342V153.392L264.511 156.822V134.772Z" fill="url(#paint17_linear_50_1427)"/>
<path d="M253.242 126.93L247.852 123.5V146.04L253.242 149.47V126.93Z" fill="url(#paint18_linear_50_1427)"/>
<path d="M201.728 87.3683L191.928 81.4883V82.9583L201.728 88.8383V87.3683Z" fill="#CBCBCB"/>
<path d="M201.728 90.798L191.928 84.918V86.388L201.728 92.268V90.798Z" fill="#CBCBCB"/>
<path d="M201.728 83.4484L191.928 77.5684V79.0384L201.728 84.9184V83.4484Z" fill="#CBCBCB"/>
<path d="M195.358 90.3076L191.928 88.3477V89.8176L195.358 91.7776V90.3076Z" fill="#CBCBCB"/>
<path d="M206.137 98.6384C205.647 98.1484 205.647 98.6384 206.137 98.6384V86.3884C206.137 86.3884 206.137 85.8984 206.627 85.8984L207.117 86.3884L206.137 98.6384Z" fill="#C9D1D6"/>
<path d="M214.957 91.7792C212.017 89.8192 210.057 91.2892 209.567 94.2292C209.077 97.1692 211.527 101.579 214.467 103.049C217.407 105.009 219.367 103.539 219.857 100.599C220.347 97.6592 217.407 93.7392 214.957 91.7792ZM214.467 102.069C212.507 100.599 210.547 97.6592 211.037 95.2092C211.527 92.7592 212.997 91.7792 214.957 93.2492C216.917 94.7192 218.877 97.6592 218.387 100.109C217.897 102.559 216.427 103.539 214.467 102.069Z" fill="#CBCBCB"/>
<path d="M218.877 111.378L191.437 93.738C191.437 93.738 190.947 93.248 191.437 93.248H191.927L219.367 110.398C219.367 110.888 219.367 110.888 218.877 111.378Z" fill="#C9D1D6"/>
<path d="M218.387 100.109C218.387 101.579 217.898 102.559 216.918 102.559C216.918 102.559 216.428 103.049 216.918 103.539C216.918 104.029 217.408 104.519 217.898 104.029C219.368 103.539 219.858 102.559 220.348 100.599C220.348 97.6586 218.878 94.2286 216.428 92.2686C215.938 91.7786 215.938 92.2686 215.938 92.2686C215.938 92.7586 215.938 92.7586 216.428 93.2486C217.408 95.2086 218.387 97.6586 218.387 100.109Z" fill="url(#paint19_linear_50_1427)"/>
<path d="M191.437 109.932L190.947 109.442V106.502L191.437 106.992V109.932Z" fill="url(#paint20_linear_50_1427)"/>
<path d="M192.418 110.422L191.928 109.932V106.992L192.418 107.482V110.422Z" fill="url(#paint21_linear_50_1427)"/>
<path d="M193.398 110.912L192.908 110.422V107.482L193.398 107.972V110.912Z" fill="url(#paint22_linear_50_1427)"/>
<path d="M194.377 111.893L193.887 111.403V108.463L194.377 108.953V111.893Z" fill="url(#paint23_linear_50_1427)"/>
<path d="M194.867 112.381L194.377 111.891V108.951L194.867 109.441V112.381Z" fill="url(#paint24_linear_50_1427)"/>
<path d="M195.847 112.871L195.357 112.381V109.441L195.847 109.931V112.871Z" fill="url(#paint25_linear_50_1427)"/>
<path d="M196.828 113.362L196.338 112.872V109.932L196.828 110.422V113.362Z" fill="url(#paint26_linear_50_1427)"/>
<path d="M197.806 113.852L197.316 113.362V110.422L197.806 110.912V113.852Z" fill="url(#paint27_linear_50_1427)"/>
<path d="M198.297 114.342L197.807 113.852V110.912L198.297 111.402V114.342Z" fill="url(#paint28_linear_50_1427)"/>
<path d="M199.277 114.832L198.787 114.342V111.402L199.277 111.892V114.832Z" fill="url(#paint29_linear_50_1427)"/>
<path d="M200.258 115.322L199.768 114.833V111.893L200.258 112.383V115.322Z" fill="url(#paint30_linear_50_1427)"/>
<path d="M201.238 115.813L200.748 115.323V112.383L201.238 112.873V115.813Z" fill="url(#paint31_linear_50_1427)"/>
<path d="M201.726 116.791L201.236 116.301V113.361L201.726 113.851V116.791Z" fill="url(#paint32_linear_50_1427)"/>
<path d="M202.707 117.282L202.217 116.792V113.852L202.707 114.342V117.282Z" fill="url(#paint33_linear_50_1427)"/>
<path d="M203.687 117.772L203.197 117.282V114.342L203.687 114.832V117.772Z" fill="url(#paint34_linear_50_1427)"/>
<path d="M204.668 118.262L204.178 117.772V114.832L204.668 115.322V118.262Z" fill="url(#paint35_linear_50_1427)"/>
<path d="M205.648 118.752L205.158 118.262V115.322L205.648 115.812V118.752Z" fill="url(#paint36_linear_50_1427)"/>
<path d="M206.136 119.243L205.646 118.753V115.812L206.136 116.303V119.243Z" fill="url(#paint37_linear_50_1427)"/>
<path d="M207.117 119.733L206.627 119.243V116.303L207.117 116.793V119.733Z" fill="url(#paint38_linear_50_1427)"/>
<path d="M208.097 120.221L207.607 119.731V116.791L208.097 117.281V120.221Z" fill="url(#paint39_linear_50_1427)"/>
<path d="M209.078 120.711L208.588 120.221V117.281L209.078 117.771V120.711Z" fill="url(#paint40_linear_50_1427)"/>
<path d="M209.568 121.692L209.078 121.202V118.262L209.568 118.752V121.692Z" fill="url(#paint41_linear_50_1427)"/>
<path d="M210.547 122.182L210.057 121.692V118.752L210.547 119.242V122.182Z" fill="url(#paint42_linear_50_1427)"/>
<path d="M211.527 122.672L211.037 122.182V119.242L211.527 119.732V122.672Z" fill="url(#paint43_linear_50_1427)"/>
<path d="M212.508 123.162L212.018 122.672V119.732L212.508 120.222V123.162Z" fill="#CBCBCB"/>
<path d="M212.998 123.653L212.508 123.163V120.223L212.998 120.713V123.653Z" fill="#CBCBCB"/>
<path d="M213.976 124.143L213.486 123.653V120.713L213.976 121.203V124.143Z" fill="#CBCBCB"/>
<path d="M214.957 124.631L214.467 124.141V121.201L214.957 121.691V124.631Z" fill="#CBCBCB"/>
<path d="M215.937 125.121L215.447 124.631V121.691L215.937 122.181V125.121Z" fill="#CBCBCB"/>
<path d="M216.918 125.612L216.428 125.122V122.182L216.918 122.672V125.612Z" fill="#CBCBCB"/>
<path d="M217.408 126.592L216.918 126.102V123.162L217.408 123.652V126.592Z" fill="#CBCBCB"/>
<path d="M218.386 127.082L217.896 126.592V123.652L218.386 124.142V127.082Z" fill="#CBCBCB"/>
<path d="M211.528 126.102L211.038 123.652L210.058 125.122L208.098 124.142V128.062L212.998 131.002V127.082L211.528 126.102Z" fill="#F9346C"/>
<path d="M200.748 104.028L191.438 98.1484V100.598L200.748 106.478V104.028Z" fill="#CBCBCB"/>
<path d="M25.1797 86.5104C25.1797 90.4304 26.6497 93.3704 28.6097 94.3504L33.9997 97.2904C33.9997 97.2904 87.8997 57.1104 87.8997 50.2504C87.8997 50.2504 87.8997 47.8004 87.4097 46.3304C88.3897 45.8404 89.8597 45.3504 89.8597 45.3504C88.8797 44.8604 85.9396 42.9004 84.4696 42.4104C82.5096 41.9204 79.0797 42.9004 78.0997 43.3904C78.0997 41.9204 77.6096 40.4504 77.1196 39.4704L79.5696 38.9804L74.6696 36.0404C72.7096 35.0604 70.2597 35.0604 67.8097 36.5304C66.3397 37.5104 65.3596 38.4904 64.3796 39.4704C64.3796 39.4704 61.9297 38.0004 60.4597 37.0204C58.9897 36.0404 57.5197 36.0404 56.0497 36.0404C55.5597 36.0404 55.0697 36.0404 54.5797 36.0404C54.0897 36.0404 54.0897 36.0404 53.5997 36.0404C52.1297 36.5304 50.6597 37.0204 49.1897 38.0004C43.3097 41.4304 37.9197 48.2904 34.9797 56.6204C33.0197 61.5204 31.5497 67.8904 32.0397 71.3204C26.1597 77.2004 25.1797 81.1204 25.1797 86.5104Z" fill="url(#paint44_linear_50_1427)"/>
<path d="M31.0605 89.9407C31.0605 96.8007 35.4705 100.231 40.8605 97.2907C40.8605 97.2907 41.3506 97.2907 41.3506 96.8007L83.9805 71.8107C83.9805 71.8107 84.4705 71.8107 84.4705 71.3207C89.8605 68.3807 93.7805 60.0507 93.7805 53.1907C93.7805 46.3307 89.3705 42.9007 83.9805 45.8407C83.9805 45.8407 83.9806 45.8407 83.4906 45.8407C83.0006 38.4907 78.5905 35.5507 72.7105 38.9807C71.2405 39.9607 69.7706 41.4307 68.3006 42.9007C65.3606 38.4907 59.9705 37.5107 54.0905 40.9407C44.7805 46.3307 36.9406 61.0307 37.4306 73.7707C33.5106 78.1807 31.0605 84.5507 31.0605 89.9407Z" fill="#F3F8FE"/>
<path d="M83.9793 71.3207C89.3693 68.3807 93.2895 60.0507 93.2895 53.1907C93.2895 46.3307 88.8794 42.9007 83.4894 45.8407C83.4894 45.8407 83.4894 45.8407 82.9994 45.8407C82.5094 38.4907 78.0994 35.5507 72.2194 38.9807C70.7494 39.9607 69.2794 41.4307 67.8094 42.9007C64.8694 38.4907 59.4794 37.5107 53.5994 40.9407L53.1094 41.4307L75.6494 76.2207L82.9994 71.8107C83.4894 71.8107 83.9793 71.8107 83.9793 71.3207Z" fill="url(#paint45_linear_50_1427)"/>
<path d="M428.451 105.62C428.451 108.07 427.471 109.54 426.491 110.03L423.551 111.99C423.551 111.99 391.701 88.4696 391.701 84.0596C391.701 84.0596 391.701 82.5896 392.191 81.6096C391.701 81.6096 390.721 81.1196 390.721 81.1196C391.211 80.6296 393.171 79.6496 393.661 79.1596C394.641 78.6696 397.091 79.1596 397.581 79.6496C397.581 78.6696 397.581 78.1796 398.071 77.1996L396.601 76.7096L399.541 74.7496C400.521 74.2596 401.991 74.2596 403.951 75.2396C404.931 75.7296 405.421 76.2196 405.911 77.1996C405.911 77.1996 407.381 76.2196 408.361 75.7296C409.341 75.2396 410.321 75.2396 411.301 75.2396C411.791 75.2396 411.791 75.2396 412.281 75.2396H412.771C413.751 75.2396 414.731 75.7296 415.221 76.2196C418.651 78.1796 422.081 82.5896 423.551 86.9996C424.531 89.9396 425.511 93.3696 425.021 95.8196C427.471 100.23 428.451 102.19 428.451 105.62Z" fill="url(#paint46_linear_50_1427)"/>
<path d="M425.021 107.579C425.021 111.499 422.571 113.459 419.141 111.989C419.141 111.989 419.141 111.989 418.651 111.989L393.661 97.2894C393.661 97.2894 393.661 97.2894 393.171 97.2894C390.231 95.3294 387.781 90.4294 387.781 86.5094C387.781 82.5894 390.231 80.6294 393.661 82.0994C393.661 77.6894 396.601 75.7294 400.031 77.6894C401.011 78.1794 401.991 79.1594 402.481 79.6494C404.441 77.1994 407.381 76.2194 410.811 78.6694C416.201 82.0994 421.101 90.9194 420.611 98.2694C423.551 100.719 425.021 104.149 425.021 107.579Z" fill="#F3F8FE"/>
<path d="M393.662 96.7992C390.722 94.8392 388.271 89.9392 388.271 86.0192C388.271 82.0992 390.722 80.1392 394.152 81.6092C394.152 77.1992 397.091 75.2392 400.521 77.1992C401.501 77.6892 402.481 78.6692 402.971 79.1592C404.931 76.7092 407.872 75.7292 411.302 78.1792C411.302 78.1792 411.302 78.1792 411.792 78.6692L398.562 99.2492L393.662 96.7992Z" fill="url(#paint47_linear_50_1427)"/>
<defs>
<linearGradient id="paint0_linear_50_1427" x1="0.357757" y1="371.542" x2="459.18" y2="371.542" gradientUnits="userSpaceOnUse">
<stop stop-color="#92A6F1"/>
<stop offset="1" stop-color="white"/>
</linearGradient>
<linearGradient id="paint1_linear_50_1427" x1="76.7431" y1="272.747" x2="382.797" y2="272.747" gradientUnits="userSpaceOnUse">
<stop offset="0.3375" stop-color="#97B5E1"/>
<stop offset="0.5932" stop-color="#E8F1FF"/>
</linearGradient>
<linearGradient id="paint2_linear_50_1427" x1="381.622" y1="182.359" x2="77.9175" y2="154.791" gradientUnits="userSpaceOnUse">
<stop stop-color="white"/>
<stop offset="1" stop-color="#C9D9F4"/>
</linearGradient>
<linearGradient id="paint3_linear_50_1427" x1="107.431" y1="233.499" x2="101.992" y2="224.08" gradientUnits="userSpaceOnUse">
<stop stop-color="#103DB5"/>
<stop offset="0.6426" stop-color="#6BABFD"/>
</linearGradient>
<linearGradient id="paint4_linear_50_1427" x1="123.505" y1="242.7" x2="118.066" y2="233.281" gradientUnits="userSpaceOnUse">
<stop stop-color="#103DB5"/>
<stop offset="0.6426" stop-color="#6BABFD"/>
</linearGradient>
<linearGradient id="paint5_linear_50_1427" x1="140.12" y1="271.108" x2="116.946" y2="303.621" gradientUnits="userSpaceOnUse">
<stop stop-color="#0CFFFC" stop-opacity="0.6"/>
<stop offset="1" stop-color="white" stop-opacity="0"/>
</linearGradient>
<linearGradient id="paint6_linear_50_1427" x1="-128.942" y1="88.8388" x2="-2.09891" y2="88.8388" gradientUnits="userSpaceOnUse">
<stop stop-color="#E5EDF6"/>
<stop offset="1" stop-color="#F0F5FA"/>
</linearGradient>
<linearGradient id="paint7_linear_50_1427" x1="-205.599" y1="161.716" x2="-4.97246" y2="161.716" gradientUnits="userSpaceOnUse">
<stop stop-color="#E5EDF6"/>
<stop offset="1" stop-color="#F0F5FA"/>
</linearGradient>
<linearGradient id="paint8_linear_50_1427" x1="-159.558" y1="184.894" x2="-127.977" y2="184.894" gradientUnits="userSpaceOnUse">
<stop stop-color="#E5EDF6"/>
<stop offset="1" stop-color="#F0F5FA"/>
</linearGradient>
<linearGradient id="paint9_linear_50_1427" x1="185.47" y1="65.9158" x2="302.987" y2="65.9158" gradientUnits="userSpaceOnUse">
<stop stop-color="#103DB5"/>
<stop offset="1" stop-color="#6BABFD"/>
</linearGradient>
<linearGradient id="paint10_linear_50_1427" x1="227.203" y1="65.6856" x2="216.826" y2="69.4037" gradientUnits="userSpaceOnUse">
<stop stop-color="#FF8000"/>
<stop offset="1" stop-color="#FFD000"/>
</linearGradient>
<linearGradient id="paint11_linear_50_1427" x1="217.118" y1="66.9411" x2="214.611" y2="75.6743" gradientUnits="userSpaceOnUse">
<stop stop-color="#FF8000"/>
<stop offset="1" stop-color="#FFD000"/>
</linearGradient>
<linearGradient id="paint12_linear_50_1427" x1="225.748" y1="119.645" x2="299.106" y2="119.645" gradientUnits="userSpaceOnUse">
<stop stop-color="#FF8000"/>
<stop offset="1" stop-color="#FFD000"/>
</linearGradient>
<linearGradient id="paint13_linear_50_1427" x1="282.124" y1="281.218" x2="282.124" y2="332.824" gradientUnits="userSpaceOnUse">
<stop stop-color="#FF8000"/>
<stop offset="1" stop-color="#FFD000"/>
</linearGradient>
<linearGradient id="paint14_linear_50_1427" x1="238.065" y1="309.053" x2="238.065" y2="332.538" gradientUnits="userSpaceOnUse">
<stop stop-color="#FF8000"/>
<stop offset="1" stop-color="#FFD000"/>
</linearGradient>
<linearGradient id="paint15_linear_50_1427" x1="229.386" y1="317.826" x2="229.386" y2="332.432" gradientUnits="userSpaceOnUse">
<stop stop-color="#FF8000"/>
<stop offset="1" stop-color="#FFD000"/>
</linearGradient>
<linearGradient id="paint16_linear_50_1427" x1="271.914" y1="303.958" x2="271.914" y2="332.363" gradientUnits="userSpaceOnUse">
<stop stop-color="#FF8000"/>
<stop offset="1" stop-color="#FFD000"/>
</linearGradient>
<linearGradient id="paint17_linear_50_1427" x1="261.954" y1="308.601" x2="261.954" y2="332.053" gradientUnits="userSpaceOnUse">
<stop stop-color="#FF8000"/>
<stop offset="1" stop-color="#FFD000"/>
</linearGradient>
<linearGradient id="paint18_linear_50_1427" x1="250.224" y1="315.937" x2="250.224" y2="331.903" gradientUnits="userSpaceOnUse">
<stop stop-color="#FF8000"/>
<stop offset="1" stop-color="#FFD000"/>
</linearGradient>
<linearGradient id="paint19_linear_50_1427" x1="-1631.25" y1="-3620.03" x2="-1621.39" y2="-3616.9" gradientUnits="userSpaceOnUse">
<stop stop-color="#2500E9"/>
<stop offset="0.524" stop-color="#9987F4"/>
<stop offset="1" stop-color="white"/>
</linearGradient>
<linearGradient id="paint20_linear_50_1427" x1="188.584" y1="106.526" x2="206.439" y2="118.109" gradientUnits="userSpaceOnUse">
<stop stop-color="#FF8000"/>
<stop offset="1" stop-color="#FFD000"/>
</linearGradient>
<linearGradient id="paint21_linear_50_1427" x1="188.592" y1="106.514" x2="206.448" y2="118.103" gradientUnits="userSpaceOnUse">
<stop stop-color="#FF8000"/>
<stop offset="1" stop-color="#FFD000"/>
</linearGradient>
<linearGradient id="paint22_linear_50_1427" x1="188.599" y1="106.503" x2="206.456" y2="118.091" gradientUnits="userSpaceOnUse">
<stop stop-color="#FF8000"/>
<stop offset="1" stop-color="#FFD000"/>
</linearGradient>
<linearGradient id="paint23_linear_50_1427" x1="188.606" y1="106.492" x2="206.462" y2="118.079" gradientUnits="userSpaceOnUse">
<stop stop-color="#FF8000"/>
<stop offset="1" stop-color="#FFD000"/>
</linearGradient>
<linearGradient id="paint24_linear_50_1427" x1="188.614" y1="106.478" x2="206.47" y2="118.066" gradientUnits="userSpaceOnUse">
<stop stop-color="#FF8000"/>
<stop offset="1" stop-color="#FFD000"/>
</linearGradient>
<linearGradient id="paint25_linear_50_1427" x1="188.621" y1="106.467" x2="206.478" y2="118.055" gradientUnits="userSpaceOnUse">
<stop stop-color="#FF8000"/>
<stop offset="1" stop-color="#FFD000"/>
</linearGradient>
<linearGradient id="paint26_linear_50_1427" x1="188.629" y1="106.455" x2="206.486" y2="118.043" gradientUnits="userSpaceOnUse">
<stop stop-color="#FF8000"/>
<stop offset="1" stop-color="#FFD000"/>
</linearGradient>
<linearGradient id="paint27_linear_50_1427" x1="188.636" y1="106.443" x2="206.492" y2="118.031" gradientUnits="userSpaceOnUse">
<stop stop-color="#FF8000"/>
<stop offset="1" stop-color="#FFD000"/>
</linearGradient>
<linearGradient id="paint28_linear_50_1427" x1="188.644" y1="106.432" x2="206.5" y2="118.02" gradientUnits="userSpaceOnUse">
<stop stop-color="#FF8000"/>
<stop offset="1" stop-color="#FFD000"/>
</linearGradient>
<linearGradient id="paint29_linear_50_1427" x1="188.651" y1="106.42" x2="206.509" y2="118.008" gradientUnits="userSpaceOnUse">
<stop stop-color="#FF8000"/>
<stop offset="1" stop-color="#FFD000"/>
</linearGradient>
<linearGradient id="paint30_linear_50_1427" x1="188.66" y1="106.409" x2="206.516" y2="117.997" gradientUnits="userSpaceOnUse">
<stop stop-color="#FF8000"/>
<stop offset="1" stop-color="#FFD000"/>
</linearGradient>
<linearGradient id="paint31_linear_50_1427" x1="188.671" y1="106.398" x2="206.525" y2="117.981" gradientUnits="userSpaceOnUse">
<stop stop-color="#FF8000"/>
<stop offset="1" stop-color="#FFD000"/>
</linearGradient>
<linearGradient id="paint32_linear_50_1427" x1="188.673" y1="106.384" x2="206.53" y2="117.972" gradientUnits="userSpaceOnUse">
<stop stop-color="#FF8000"/>
<stop offset="1" stop-color="#FFD000"/>
</linearGradient>
<linearGradient id="paint33_linear_50_1427" x1="188.681" y1="106.373" x2="206.538" y2="117.961" gradientUnits="userSpaceOnUse">
<stop stop-color="#FF8000"/>
<stop offset="1" stop-color="#FFD000"/>
</linearGradient>
<linearGradient id="paint34_linear_50_1427" x1="188.694" y1="106.361" x2="206.548" y2="117.944" gradientUnits="userSpaceOnUse">
<stop stop-color="#FF8000"/>
<stop offset="1" stop-color="#FFD000"/>
</linearGradient>
<linearGradient id="paint35_linear_50_1427" x1="188.697" y1="106.35" x2="206.553" y2="117.939" gradientUnits="userSpaceOnUse">
<stop stop-color="#FF8000"/>
<stop offset="1" stop-color="#FFD000"/>
</linearGradient>
<linearGradient id="paint36_linear_50_1427" x1="188.705" y1="106.338" x2="206.562" y2="117.927" gradientUnits="userSpaceOnUse">
<stop stop-color="#FF8000"/>
<stop offset="1" stop-color="#FFD000"/>
</linearGradient>
<linearGradient id="paint37_linear_50_1427" x1="188.716" y1="106.327" x2="206.571" y2="117.91" gradientUnits="userSpaceOnUse">
<stop stop-color="#FF8000"/>
<stop offset="1" stop-color="#FFD000"/>
</linearGradient>
<linearGradient id="paint38_linear_50_1427" x1="188.719" y1="106.315" x2="206.576" y2="117.903" gradientUnits="userSpaceOnUse">
<stop stop-color="#FF8000"/>
<stop offset="1" stop-color="#FFD000"/>
</linearGradient>
<linearGradient id="paint39_linear_50_1427" x1="188.728" y1="106.302" x2="206.584" y2="117.89" gradientUnits="userSpaceOnUse">
<stop stop-color="#FF8000"/>
<stop offset="1" stop-color="#FFD000"/>
</linearGradient>
<linearGradient id="paint40_linear_50_1427" x1="188.735" y1="106.291" x2="206.592" y2="117.879" gradientUnits="userSpaceOnUse">
<stop stop-color="#FF8000"/>
<stop offset="1" stop-color="#FFD000"/>
</linearGradient>
<linearGradient id="paint41_linear_50_1427" x1="188.743" y1="106.279" x2="206.6" y2="117.867" gradientUnits="userSpaceOnUse">
<stop stop-color="#FF8000"/>
<stop offset="1" stop-color="#FFD000"/>
</linearGradient>
<linearGradient id="paint42_linear_50_1427" x1="188.749" y1="106.268" x2="206.606" y2="117.855" gradientUnits="userSpaceOnUse">
<stop stop-color="#FF8000"/>
<stop offset="1" stop-color="#FFD000"/>
</linearGradient>
<linearGradient id="paint43_linear_50_1427" x1="188.757" y1="106.257" x2="206.614" y2="117.845" gradientUnits="userSpaceOnUse">
<stop stop-color="#FF8000"/>
<stop offset="1" stop-color="#FFD000"/>
</linearGradient>
<linearGradient id="paint44_linear_50_1427" x1="14.1287" y1="88.5626" x2="68.3169" y2="47.0571" gradientUnits="userSpaceOnUse">
<stop stop-color="#97B5E1"/>
<stop offset="1" stop-color="#ECF1FA"/>
</linearGradient>
<linearGradient id="paint45_linear_50_1427" x1="96.546" y1="68.0054" x2="45.5286" y2="39.1242" gradientUnits="userSpaceOnUse">
<stop stop-color="white"/>
<stop offset="1" stop-color="#C9D9F4"/>
</linearGradient>
<linearGradient id="paint46_linear_50_1427" x1="434.876" y1="106.834" x2="402.837" y2="82.2941" gradientUnits="userSpaceOnUse">
<stop stop-color="#97B5E1"/>
<stop offset="1" stop-color="#ECF1FA"/>
</linearGradient>
<linearGradient id="paint47_linear_50_1427" x1="386.148" y1="94.6795" x2="416.311" y2="77.6033" gradientUnits="userSpaceOnUse">
<stop stop-color="white"/>
<stop offset="1" stop-color="#C9D9F4"/>
</linearGradient>
</defs>
</svg>
