<svg width="398" height="209" viewBox="0 0 398 209" fill="none" xmlns="http://www.w3.org/2000/svg">
<g clip-path="url(#clip0_157_4515)">
<rect x="104" y="18.5" width="190" height="190" rx="95" fill="#FBE4E4"/>
<path d="M147.898 197.083L297.5 151.791L178.093 142.184L58 164.83L147.898 197.083Z" fill="#FBC2C2"/>
<path d="M131.428 151.857V90.4935L209.296 71.5L297.5 90.4935V151.857L209.296 177.182L131.428 151.857Z" fill="white"/>
<path d="M209.66 112.675L208.974 71.5L132.801 90.1723L209.66 112.675Z" fill="#FCFBFF"/>
<path d="M208.974 112.675L208.288 71.5L296.127 90.8764L208.974 112.675Z" fill="#FFDFDF"/>
<path d="M131.428 151.791V90.7148L209.66 112.675V177.182L131.428 151.791Z" fill="#FF7272"/>
<path d="M131.428 151.857V90.4935L209.296 71.5L297.5 90.4935V151.857L209.296 177.182L131.428 151.857Z" stroke="#200E52" stroke-width="0.914841"/>
<path d="M209.66 177.182V113.483L296.127 92.0879" stroke="#200E52" stroke-width="0.914841"/>
<path d="M131.428 90.7148L209.66 112.675" stroke="#200E52" stroke-width="0.914841"/>
<path d="M112.9 119.537L131.428 90.7148L209.66 112.415L190.445 144.242L112.9 119.537Z" fill="#FFC4C4" stroke="#E20000" stroke-width="0.914841"/>
<path d="M227.396 145.615L210.975 112.416L296.942 90.7148L316.715 121.106L227.396 145.615Z" fill="white" stroke="#FF0404" stroke-width="0.914841"/>
</g>
<circle cx="252.386" cy="41.1771" r="27.308" fill="#E20000"/>
<path d="M282.867 41.2365C282.867 45.2686 282.066 49.2605 280.511 52.9807C278.956 56.7008 276.678 60.0751 273.808 62.9077C270.939 65.7403 267.535 67.9749 263.795 69.4816C260.055 70.9884 256.053 71.7374 252.022 71.6852C247.99 71.633 244.009 70.7807 240.309 69.1776C236.609 67.5745 233.265 65.2526 230.47 62.3466C227.674 59.4407 225.484 56.0086 224.026 52.2494C222.568 48.4902 221.87 44.4789 221.975 40.4481L222.643 40.4654C222.541 44.4077 223.223 48.3309 224.649 52.0076C226.075 55.6842 228.218 59.041 230.951 61.8831C233.685 64.7252 236.956 66.9961 240.575 68.564C244.193 70.1319 248.087 70.9656 252.03 71.0166C255.974 71.0677 259.888 70.3351 263.546 68.8614C267.203 67.3877 270.532 65.2023 273.339 62.4319C276.145 59.6614 278.374 56.3613 279.894 52.7228C281.415 49.0843 282.199 45.18 282.199 41.2365H282.867Z" fill="#E20000"/>
<path d="M223.536 30.6275C222.483 30.3125 222.108 29.9227 221.768 28.8594C221.482 29.8232 221.124 30.2301 220 30.6275C221.139 31.079 221.493 31.4807 221.768 32.3957C222.108 31.4514 222.496 31.0549 223.536 30.6275Z" stroke="#E20000"/>
<path d="M277.215 18.0553C276.162 17.7402 275.787 17.3504 275.447 16.2871C275.161 17.251 274.803 17.6578 273.679 18.0553C274.818 18.5068 275.171 18.9085 275.447 19.8234C275.787 18.8791 276.175 18.4826 277.215 18.0553Z" stroke="#E20000"/>
<path d="M226.111 22.6871C229.151 18.4553 233.225 15.0741 237.945 12.8671C242.665 10.66 247.872 9.70081 253.068 10.0813L253.019 10.7482C247.937 10.3761 242.844 11.3142 238.228 13.4728C233.612 15.6314 229.627 18.9383 226.654 23.0772L226.111 22.6871Z" fill="#E20000"/>
<path fill-rule="evenodd" clip-rule="evenodd" d="M252.401 42.6865L261.787 52.0723L263.282 50.5772L253.896 41.1914L263.282 31.8056L261.787 30.3105L252.401 39.6963L243.015 30.3105L241.52 31.8056L250.906 41.1914L241.52 50.5772L243.015 52.0723L252.401 42.6865Z" fill="white"/>
<defs>
<clipPath id="clip0_157_4515">
<rect x="104" y="18.5" width="190" height="190" rx="95" fill="white"/>
</clipPath>
</defs>
</svg>
