<svg width="89" height="72" viewBox="0 0 89 72" fill="none" xmlns="http://www.w3.org/2000/svg">
<path d="M44.5 12.2539C38.99 12.2539 34.5 16.7439 34.5 22.2539C34.5 27.7639 38.99 32.2539 44.5 32.2539C50.01 32.2539 54.5 27.7639 54.5 22.2539C54.5 16.7439 50.01 12.2539 44.5 12.2539ZM48.5 23.0039H45.25V26.2539C45.25 26.6639 44.91 27.0039 44.5 27.0039C44.09 27.0039 43.75 26.6639 43.75 26.2539V23.0039H40.5C40.09 23.0039 39.75 22.6639 39.75 22.2539C39.75 21.8439 40.09 21.5039 40.5 21.5039H43.75V18.2539C43.75 17.8439 44.09 17.5039 44.5 17.5039C44.91 17.5039 45.25 17.8439 45.25 18.2539V21.5039H48.5C48.91 21.5039 49.25 21.8439 49.25 22.2539C49.25 22.6639 48.91 23.0039 48.5 23.0039Z" fill="#009CDE"/>
<path d="M0.24 56.2539L4.336 45.5819H6.688L10.592 56.2539H8.352L4.864 46.3179L5.824 46.2379L2.336 56.2539H0.24ZM2.4 53.6459L2.912 51.9819H7.888L8.064 53.6459H2.4ZM15.5351 56.4939C14.9805 56.4939 14.4525 56.4299 13.9511 56.3019C13.4498 56.1739 13.0071 55.9499 12.6231 55.6299C12.2391 55.3099 11.9351 54.8672 11.7111 54.3019C11.4978 53.7366 11.3911 53.0166 11.3911 52.1419C11.3911 50.8512 11.7058 49.8326 12.3351 49.0859C12.9645 48.3392 13.9191 47.9659 15.1991 47.9659C15.3805 47.9659 15.6151 47.9872 15.9031 48.0299C16.1911 48.0726 16.4845 48.1472 16.7831 48.2539C17.0925 48.3499 17.3591 48.5046 17.5831 48.7179L17.1351 49.3579V44.8459H19.1351V54.3659C19.1351 54.7286 19.0285 55.0432 18.8151 55.3099C18.6125 55.5766 18.3351 55.8006 17.9831 55.9819C17.6311 56.1526 17.2418 56.2806 16.8151 56.3659C16.3885 56.4512 15.9618 56.4939 15.5351 56.4939ZM15.5991 54.7659C16.0365 54.7659 16.3991 54.7126 16.6871 54.6059C16.9858 54.4992 17.1351 54.3446 17.1351 54.1419V50.0459C16.9005 49.9072 16.6498 49.8059 16.3831 49.7419C16.1165 49.6779 15.8605 49.6459 15.6151 49.6459C15.1245 49.6459 14.7191 49.7366 14.3991 49.9179C14.0791 50.0886 13.8391 50.3659 13.6791 50.7499C13.5191 51.1232 13.4391 51.6032 13.4391 52.1899C13.4391 52.7019 13.5031 53.1499 13.6311 53.5339C13.7591 53.9179 13.9778 54.2219 14.2871 54.4459C14.6071 54.6592 15.0445 54.7659 15.5991 54.7659ZM25.082 56.4939C24.5273 56.4939 23.9993 56.4299 23.498 56.3019C22.9967 56.1739 22.554 55.9499 22.17 55.6299C21.786 55.3099 21.482 54.8672 21.258 54.3019C21.0447 53.7366 20.938 53.0166 20.938 52.1419C20.938 50.8512 21.2527 49.8326 21.882 49.0859C22.5113 48.3392 23.466 47.9659 24.746 47.9659C24.9273 47.9659 25.162 47.9872 25.45 48.0299C25.738 48.0726 26.0313 48.1472 26.33 48.2539C26.6393 48.3499 26.906 48.5046 27.13 48.7179L26.682 49.3579V44.8459H28.682V54.3659C28.682 54.7286 28.5753 55.0432 28.362 55.3099C28.1593 55.5766 27.882 55.8006 27.53 55.9819C27.178 56.1526 26.7887 56.2806 26.362 56.3659C25.9353 56.4512 25.5087 56.4939 25.082 56.4939ZM25.146 54.7659C25.5833 54.7659 25.946 54.7126 26.234 54.6059C26.5327 54.4992 26.682 54.3446 26.682 54.1419V50.0459C26.4473 49.9072 26.1967 49.8059 25.93 49.7419C25.6633 49.6779 25.4073 49.6459 25.162 49.6459C24.6713 49.6459 24.266 49.7366 23.946 49.9179C23.626 50.0886 23.386 50.3659 23.226 50.7499C23.066 51.1232 22.986 51.6032 22.986 52.1899C22.986 52.7019 23.05 53.1499 23.178 53.5339C23.306 53.9179 23.5247 54.2219 23.834 54.4459C24.154 54.6592 24.5913 54.7659 25.146 54.7659ZM38.5373 56.2539L34.5213 45.5819H37.0013L40.2173 54.8459H39.4973L42.6973 45.5979L44.9853 45.5819L40.8253 56.2539H38.5373ZM49.0939 56.4939C48.2939 56.4939 47.5952 56.3339 46.9979 56.0139C46.4005 55.6832 45.9365 55.2032 45.6059 54.5739C45.2752 53.9446 45.1099 53.1872 45.1099 52.3019C45.1099 50.8939 45.4459 49.8219 46.1179 49.0859C46.8005 48.3392 47.7552 47.9659 48.9819 47.9659C49.8672 47.9659 50.5765 48.1579 51.1099 48.5419C51.6539 48.9259 52.0485 49.4752 52.2939 50.1899C52.5499 50.8939 52.6725 51.7366 52.6619 52.7179H46.4219L46.2619 51.3419H51.0459L50.6619 51.9179C50.6405 51.0752 50.4912 50.4726 50.2139 50.1099C49.9472 49.7366 49.5152 49.5499 48.9179 49.5499C48.5552 49.5499 48.2352 49.6352 47.9579 49.8059C47.6912 49.9659 47.4832 50.2379 47.3339 50.6219C47.1952 51.0059 47.1259 51.5339 47.1259 52.2059C47.1259 53.0379 47.3232 53.6779 47.7179 54.1259C48.1125 54.5632 48.7152 54.7819 49.5259 54.7819C49.8565 54.7819 50.1712 54.7499 50.4699 54.6859C50.7792 54.6112 51.0619 54.5259 51.3179 54.4299C51.5845 54.3339 51.8085 54.2432 51.9899 54.1579V55.9499C51.6165 56.1099 51.1899 56.2379 50.7099 56.3339C50.2405 56.4406 49.7019 56.4939 49.0939 56.4939ZM54.4481 48.8619C54.6721 48.7552 54.9388 48.6486 55.2481 48.5419C55.5575 48.4352 55.8935 48.3446 56.2561 48.2699C56.6188 48.1846 56.9815 48.1206 57.3441 48.0779C57.7175 48.0246 58.0695 47.9979 58.4001 47.9979C59.1468 47.9979 59.7655 48.0992 60.2561 48.3019C60.7575 48.4939 61.1308 48.8032 61.3761 49.2299C61.6321 49.6459 61.7601 50.1952 61.7601 50.8779V56.2539H59.7441V51.2299C59.7441 51.0272 59.7175 50.8352 59.6641 50.6539C59.6108 50.4619 59.5201 50.2966 59.3921 50.1579C59.2641 50.0086 59.0881 49.8966 58.8641 49.8219C58.6401 49.7366 58.3521 49.6939 58.0001 49.6939C57.7335 49.6939 57.4615 49.7206 57.1841 49.7739C56.9068 49.8272 56.6721 49.8966 56.4801 49.9819V56.2539H54.4481V48.8619ZM67.707 56.4939C67.1523 56.4939 66.6243 56.4299 66.123 56.3019C65.6217 56.1739 65.179 55.9499 64.795 55.6299C64.411 55.3099 64.107 54.8672 63.883 54.3019C63.6697 53.7366 63.563 53.0166 63.563 52.1419C63.563 50.8512 63.8777 49.8326 64.507 49.0859C65.1363 48.3392 66.091 47.9659 67.371 47.9659C67.5523 47.9659 67.787 47.9872 68.075 48.0299C68.363 48.0726 68.6563 48.1472 68.955 48.2539C69.2643 48.3499 69.531 48.5046 69.755 48.7179L69.307 49.3579V44.8459H71.307V54.3659C71.307 54.7286 71.2003 55.0432 70.987 55.3099C70.7843 55.5766 70.507 55.8006 70.155 55.9819C69.803 56.1526 69.4137 56.2806 68.987 56.3659C68.5603 56.4512 68.1337 56.4939 67.707 56.4939ZM67.771 54.7659C68.2083 54.7659 68.571 54.7126 68.859 54.6059C69.1577 54.4992 69.307 54.3446 69.307 54.1419V50.0459C69.0723 49.9072 68.8217 49.8059 68.555 49.7419C68.2883 49.6779 68.0323 49.6459 67.787 49.6459C67.2963 49.6459 66.891 49.7366 66.571 49.9179C66.251 50.0886 66.011 50.3659 65.851 50.7499C65.691 51.1232 65.611 51.6032 65.611 52.1899C65.611 52.7019 65.675 53.1499 65.803 53.5339C65.931 53.9179 66.1497 54.2219 66.459 54.4459C66.779 54.6592 67.2163 54.7659 67.771 54.7659ZM77.0779 56.4939C75.7552 56.4939 74.7632 56.1259 74.1019 55.3899C73.4405 54.6539 73.1099 53.5926 73.1099 52.2059C73.1099 50.7232 73.4459 49.6459 74.1179 48.9739C74.8005 48.3019 75.7819 47.9659 77.0619 47.9659C77.9579 47.9659 78.7045 48.1259 79.3019 48.4459C79.8992 48.7552 80.3419 49.2246 80.6299 49.8539C80.9285 50.4832 81.0779 51.2672 81.0779 52.2059C81.0779 53.5926 80.7312 54.6539 80.0379 55.3899C79.3552 56.1259 78.3685 56.4939 77.0779 56.4939ZM77.0779 54.8299C77.5472 54.8299 77.9259 54.7232 78.2139 54.5099C78.5125 54.2966 78.7312 53.9979 78.8699 53.6139C79.0085 53.2192 79.0779 52.7499 79.0779 52.2059C79.0779 51.5979 79.0032 51.1019 78.8539 50.7179C78.7152 50.3339 78.4965 50.0512 78.1979 49.8699C77.9099 49.6886 77.5365 49.5979 77.0779 49.5979C76.6085 49.5979 76.2299 49.6939 75.9419 49.8859C75.6539 50.0779 75.4405 50.3659 75.3019 50.7499C75.1739 51.1339 75.1099 51.6192 75.1099 52.2059C75.1099 53.0592 75.2645 53.7099 75.5739 54.1579C75.8832 54.6059 76.3845 54.8299 77.0779 54.8299ZM82.8856 56.2539V48.9739C83.035 48.8779 83.2963 48.7499 83.6696 48.5899C84.0536 48.4299 84.4963 48.2912 84.9976 48.1739C85.499 48.0459 86.0056 47.9819 86.5176 47.9819C86.9016 47.9819 87.2056 48.0139 87.4296 48.0779C87.6643 48.1312 87.8456 48.2006 87.9736 48.2859V49.8219C87.7603 49.7899 87.515 49.7632 87.2376 49.7419C86.971 49.7206 86.6936 49.7152 86.4056 49.7259C86.1283 49.7259 85.8563 49.7366 85.5896 49.7579C85.3336 49.7792 85.1096 49.8059 84.9176 49.8379V56.2539H82.8856Z" fill="#33363F"/>
</svg>
