<svg width="62" height="71" viewBox="0 0 62 71" fill="none" xmlns="http://www.w3.org/2000/svg">
<path d="M31 12C25.49 12 21 16.49 21 22C21 27.51 25.49 32 31 32C36.51 32 41 27.51 41 22C41 16.49 36.51 12 31 12ZM35 22.75H31.75V26C31.75 26.41 31.41 26.75 31 26.75C30.59 26.75 30.25 26.41 30.25 26V22.75H27C26.59 22.75 26.25 22.41 26.25 22C26.25 21.59 26.59 21.25 27 21.25H30.25V18C30.25 17.59 30.59 17.25 31 17.25C31.41 17.25 31.75 17.59 31.75 18V21.25H35C35.41 21.25 35.75 21.59 35.75 22C35.75 22.41 35.41 22.75 35 22.75Z" fill="#009CDE"/>
<path d="M0.24 56L4.336 45.328H6.688L10.592 56H8.352L4.864 46.064L5.824 45.984L2.336 56H0.24ZM2.4 53.392L2.912 51.728H7.888L8.064 53.392H2.4ZM15.5351 56.24C14.9805 56.24 14.4525 56.176 13.9511 56.048C13.4498 55.92 13.0071 55.696 12.6231 55.376C12.2391 55.056 11.9351 54.6133 11.7111 54.048C11.4978 53.4827 11.3911 52.7627 11.3911 51.888C11.3911 50.5973 11.7058 49.5787 12.3351 48.832C12.9645 48.0853 13.9191 47.712 15.1991 47.712C15.3805 47.712 15.6151 47.7333 15.9031 47.776C16.1911 47.8187 16.4845 47.8933 16.7831 48C17.0925 48.096 17.3591 48.2507 17.5831 48.464L17.1351 49.104V44.592H19.1351V54.112C19.1351 54.4747 19.0285 54.7893 18.8151 55.056C18.6125 55.3227 18.3351 55.5467 17.9831 55.728C17.6311 55.8987 17.2418 56.0267 16.8151 56.112C16.3885 56.1973 15.9618 56.24 15.5351 56.24ZM15.5991 54.512C16.0365 54.512 16.3991 54.4587 16.6871 54.352C16.9858 54.2453 17.1351 54.0907 17.1351 53.888V49.792C16.9005 49.6533 16.6498 49.552 16.3831 49.488C16.1165 49.424 15.8605 49.392 15.6151 49.392C15.1245 49.392 14.7191 49.4827 14.3991 49.664C14.0791 49.8347 13.8391 50.112 13.6791 50.496C13.5191 50.8693 13.4391 51.3493 13.4391 51.936C13.4391 52.448 13.5031 52.896 13.6311 53.28C13.7591 53.664 13.9778 53.968 14.2871 54.192C14.6071 54.4053 15.0445 54.512 15.5991 54.512ZM25.082 56.24C24.5273 56.24 23.9993 56.176 23.498 56.048C22.9967 55.92 22.554 55.696 22.17 55.376C21.786 55.056 21.482 54.6133 21.258 54.048C21.0447 53.4827 20.938 52.7627 20.938 51.888C20.938 50.5973 21.2527 49.5787 21.882 48.832C22.5113 48.0853 23.466 47.712 24.746 47.712C24.9273 47.712 25.162 47.7333 25.45 47.776C25.738 47.8187 26.0313 47.8933 26.33 48C26.6393 48.096 26.906 48.2507 27.13 48.464L26.682 49.104V44.592H28.682V54.112C28.682 54.4747 28.5753 54.7893 28.362 55.056C28.1593 55.3227 27.882 55.5467 27.53 55.728C27.178 55.8987 26.7887 56.0267 26.362 56.112C25.9353 56.1973 25.5087 56.24 25.082 56.24ZM25.146 54.512C25.5833 54.512 25.946 54.4587 26.234 54.352C26.5327 54.2453 26.682 54.0907 26.682 53.888V49.792C26.4473 49.6533 26.1967 49.552 25.93 49.488C25.6633 49.424 25.4073 49.392 25.162 49.392C24.6713 49.392 24.266 49.4827 23.946 49.664C23.626 49.8347 23.386 50.112 23.226 50.496C23.066 50.8693 22.986 51.3493 22.986 51.936C22.986 52.448 23.05 52.896 23.178 53.28C23.306 53.664 23.5247 53.968 23.834 54.192C24.154 54.4053 24.5913 54.512 25.146 54.512ZM35.4813 56V45.328H37.6573V56H35.4813ZM40.0594 56V45.328H45.0194C46.182 45.328 47.078 45.6053 47.7074 46.16C48.3474 46.704 48.6674 47.5253 48.6674 48.624C48.6674 49.136 48.5607 49.6267 48.3474 50.096C48.1447 50.5547 47.8407 50.9387 47.4354 51.248C47.0407 51.5573 46.5554 51.7493 45.9794 51.824L45.9954 51.12L49.2114 56H46.4754L43.6594 51.28L44.6354 52.144H42.2354V56H40.0594ZM42.2354 50.48H44.5554C45.142 50.48 45.59 50.3413 45.8994 50.064C46.2087 49.776 46.3634 49.3333 46.3634 48.736C46.3634 48.2027 46.2354 47.792 45.9794 47.504C45.7234 47.216 45.318 47.072 44.7634 47.072H42.2354V50.48ZM51.0438 56V45.328H52.9958L58.8198 53.296L58.1958 54.576V45.328H60.2118V56H58.4518L52.4838 48L53.0758 47.024V56H51.0438Z" fill="#33363F"/>
</svg>
