<svg width="201" height="48" viewBox="0 0 201 48" fill="none" xmlns="http://www.w3.org/2000/svg">
<path d="M28.3675 44.6568C30.0547 44.6568 31.4224 43.289 31.4224 41.6018C31.4224 39.9146 30.0547 38.5469 28.3675 38.5469C26.6803 38.5469 25.3125 39.9146 25.3125 41.6018C25.3125 43.289 26.6803 44.6568 28.3675 44.6568Z" fill="#0CFFFC"/>
<path d="M14.4026 44.6568C16.0898 44.6568 17.4576 43.289 17.4576 41.6018C17.4576 39.9146 16.0898 38.5469 14.4026 38.5469C12.7154 38.5469 11.3477 39.9146 11.3477 41.6018C11.3477 43.289 12.7154 44.6568 14.4026 44.6568Z" fill="#0CFFFC"/>
<path d="M8.44867 12.2565L8.09953 16.5334C8.0297 17.3539 8.67561 18.0347 9.49608 18.0347H36.2226C36.9558 18.0347 37.5668 17.4761 37.6191 16.7429C37.8461 13.653 35.4894 11.1392 32.3995 11.1392H10.945C10.7704 10.3711 10.4213 9.63792 9.88013 9.02693C9.00729 8.10171 7.7853 7.56055 6.52841 7.56055H3.49091C2.77518 7.56055 2.18164 8.15408 2.18164 8.86981C2.18164 9.58555 2.77518 10.1791 3.49091 10.1791H6.52841C7.06957 10.1791 7.57582 10.406 7.94242 10.7901C8.30901 11.1916 8.48358 11.7153 8.44867 12.2565Z" fill="#0CFFFC"/>
<path d="M35.8039 20.6543H9.02497C8.29178 20.6543 7.69825 21.2129 7.62842 21.9286L6.99997 29.5224C6.75557 32.5075 9.0948 35.0562 12.0799 35.0562H31.492C34.1105 35.0562 36.4148 32.909 36.6069 30.2905L37.1829 22.1381C37.2528 21.3351 36.6243 20.6543 35.8039 20.6543Z" fill="#0CFFFC"/>
<path d="M29.3535 30.0576V28.8059C29.3535 28.0662 29.958 27.4546 30.7048 27.4546C31.9921 27.4546 32.5184 26.5443 31.8712 25.4277C31.5014 24.7876 31.7218 23.9555 32.369 23.5856L33.5994 22.8815C34.1613 22.5473 34.8867 22.7464 35.221 23.3083L35.2992 23.4434C35.9393 24.56 36.9919 24.56 37.6391 23.4434L37.7173 23.3083C38.0516 22.7464 38.777 22.5473 39.3389 22.8815L40.5692 23.5856C41.2164 23.9555 41.4369 24.7876 41.0671 25.4277C40.4199 26.5443 40.9462 27.4546 42.2335 27.4546C42.9731 27.4546 43.5848 28.0591 43.5848 28.8059V30.0576C43.5848 30.7973 42.9802 31.4089 42.2335 31.4089C40.9462 31.4089 40.4199 32.3193 41.0671 33.4359C41.4369 34.0831 41.2164 34.9081 40.5692 35.2779L39.3389 35.982C38.777 36.3162 38.0516 36.1171 37.7173 35.5553L37.6391 35.4201C36.999 34.3035 35.9464 34.3035 35.2992 35.4201L35.221 35.5553C34.8867 36.1171 34.1613 36.3162 33.5994 35.982L32.369 35.2779C31.7218 34.9081 31.5014 34.0759 31.8712 33.4359C32.5184 32.3193 31.9921 31.4089 30.7048 31.4089C29.958 31.4089 29.3535 30.7973 29.3535 30.0576Z" fill="#003087" stroke="white" stroke-miterlimit="10" stroke-linecap="round" stroke-linejoin="round"/>
<path d="M36.4657 31.5641C37.644 31.5641 38.5993 30.6089 38.5993 29.4305C38.5993 28.2521 37.644 27.2969 36.4657 27.2969C35.2873 27.2969 34.332 28.2521 34.332 29.4305C34.332 30.6089 35.2873 31.5641 36.4657 31.5641Z" fill="#003087" stroke="white" stroke-miterlimit="10" stroke-linecap="round" stroke-linejoin="round"/>
<path d="M65.0576 41.44C63.7776 41.44 62.4656 41.2907 61.1216 40.992C59.799 40.7147 58.8176 40.352 58.1776 39.904C58.0283 39.776 57.9536 39.6373 57.9536 39.488C57.9536 39.3813 57.9856 39.2747 58.0496 39.168L59.4256 36.64C59.4896 36.5333 59.5536 36.4373 59.6176 36.352C59.703 36.288 59.7883 36.256 59.8736 36.256C59.9163 36.256 60.0443 36.2987 60.2576 36.384C61.2603 36.896 62.647 37.152 64.4176 37.152C65.4203 37.152 66.1776 36.9387 66.6896 36.512C67.2016 36.0853 67.4576 35.392 67.4576 34.432C67.031 34.7307 66.4976 34.976 65.8576 35.168C65.2176 35.3387 64.535 35.424 63.8096 35.424C61.271 35.424 59.3296 34.7947 57.9856 33.536C56.663 32.2773 56.0016 30.4533 56.0016 28.064C56.0016 25.4613 56.8123 23.4987 58.4336 22.176C60.055 20.832 62.455 20.16 65.6336 20.16C67.2336 20.16 68.759 20.384 70.2096 20.832C71.6603 21.28 72.8656 21.8453 73.8256 22.528V32.736C73.8256 35.3387 73.079 37.44 71.5856 39.04C70.0923 40.64 67.9163 41.44 65.0576 41.44ZM65.2176 30.912C66.7536 30.912 67.5216 30.176 67.5216 28.704V24.832C67.0736 24.64 66.327 24.544 65.2816 24.544C64.343 24.544 63.6283 24.7787 63.1376 25.248C62.6683 25.7173 62.4336 26.56 62.4336 27.776C62.4336 28.864 62.6576 29.664 63.1056 30.176C63.5536 30.6667 64.2576 30.912 65.2176 30.912ZM98.0564 36C97.4377 36 97.0004 35.872 96.7444 35.616C96.4884 35.36 96.3604 34.9547 96.3604 34.4V21.632C96.3604 21.248 96.4244 20.992 96.5524 20.864C96.7017 20.7147 97.0004 20.64 97.4484 20.64H100.744C101 20.64 101.192 20.6827 101.32 20.768C101.47 20.832 101.555 20.96 101.576 21.152L101.736 22.08C103.016 20.8 104.563 20.16 106.376 20.16C107.08 20.16 107.656 20.224 108.104 20.352C108.552 20.4587 108.958 20.64 109.32 20.896C109.534 21.0453 109.64 21.216 109.64 21.408C109.64 21.472 109.619 21.5893 109.576 21.76L108.552 24.672C108.467 24.9707 108.307 25.12 108.072 25.12C107.966 25.12 107.838 25.0773 107.688 24.992C107.112 24.672 106.419 24.512 105.608 24.512C104.798 24.512 104.126 24.736 103.592 25.184C103.08 25.632 102.824 26.2293 102.824 26.976V34.4C102.824 34.9547 102.696 35.36 102.44 35.616C102.206 35.872 101.779 36 101.16 36H98.0564ZM113.35 19.008C112.625 19.008 112.07 18.816 111.686 18.432C111.302 18.0267 111.11 17.5573 111.11 17.024V16.256C111.11 15.7013 111.302 15.232 111.686 14.848C112.07 14.4427 112.625 14.24 113.35 14.24H115.654C116.401 14.24 116.966 14.4427 117.35 14.848C117.734 15.232 117.926 15.7013 117.926 16.256V17.024C117.926 17.5573 117.734 18.0267 117.35 18.432C116.966 18.816 116.401 19.008 115.654 19.008H113.35ZM112.966 36C112.348 36 111.91 35.872 111.654 35.616C111.398 35.36 111.27 34.9547 111.27 34.4V22.272C111.27 21.7173 111.398 21.312 111.654 21.056C111.91 20.7787 112.348 20.64 112.966 20.64H116.038C116.657 20.64 117.094 20.7787 117.35 21.056C117.628 21.312 117.766 21.7173 117.766 22.272V34.4C117.766 34.9547 117.628 35.36 117.35 35.616C117.094 35.872 116.657 36 116.038 36H112.966ZM128.097 36.48C125.089 36.48 122.604 35.9253 120.641 34.816C120.236 34.56 120.033 34.336 120.033 34.144C120.033 34.0373 120.086 33.8773 120.193 33.664L121.537 31.264C121.665 31.008 121.825 30.88 122.017 30.88C122.145 30.88 122.326 30.944 122.561 31.072C123.158 31.392 123.916 31.6907 124.833 31.968C125.772 32.224 126.604 32.352 127.329 32.352C128.012 32.352 128.502 32.288 128.801 32.16C129.1 32.0107 129.249 31.776 129.249 31.456C129.249 31.1573 129.036 30.912 128.609 30.72C128.204 30.5067 127.457 30.24 126.369 29.92L125.665 29.728C123.894 29.1947 122.614 28.5867 121.825 27.904C121.036 27.2213 120.641 26.2507 120.641 24.992C120.641 23.4347 121.313 22.24 122.657 21.408C124.001 20.576 125.804 20.16 128.065 20.16C129.473 20.16 130.7 20.288 131.745 20.544C132.79 20.8 133.793 21.184 134.753 21.696C135.137 21.9093 135.329 22.144 135.329 22.4C135.329 22.5493 135.265 22.7413 135.137 22.976L133.825 25.056C133.676 25.2907 133.526 25.408 133.377 25.408C133.249 25.408 133.078 25.344 132.865 25.216C132.353 24.9387 131.756 24.7147 131.073 24.544C130.39 24.3733 129.729 24.288 129.089 24.288C127.617 24.288 126.881 24.608 126.881 25.248C126.881 25.5467 127.116 25.8027 127.585 26.016C128.076 26.208 128.822 26.4213 129.825 26.656C130.06 26.72 130.38 26.8053 130.785 26.912C131.212 27.0187 131.564 27.1253 131.841 27.232C132.865 27.5947 133.654 27.968 134.209 28.352C134.764 28.7147 135.158 29.152 135.393 29.664C135.628 30.1547 135.745 30.784 135.745 31.552C135.745 32.4693 135.468 33.3013 134.913 34.048C134.358 34.7733 133.505 35.36 132.353 35.808C131.201 36.256 129.782 36.48 128.097 36.48ZM139.556 36C138.938 36 138.5 35.872 138.244 35.616C137.988 35.36 137.86 34.9547 137.86 34.4V21.632C137.86 21.248 137.924 20.992 138.052 20.864C138.202 20.7147 138.5 20.64 138.948 20.64H141.988C142.244 20.64 142.436 20.6827 142.564 20.768C142.714 20.832 142.799 20.96 142.82 21.152L142.98 22.144C143.578 21.5253 144.25 21.0453 144.996 20.704C145.743 20.3413 146.618 20.16 147.62 20.16C148.516 20.16 149.284 20.32 149.924 20.64C150.564 20.96 151.108 21.4507 151.556 22.112C152.132 21.4933 152.794 21.0133 153.54 20.672C154.308 20.3307 155.226 20.16 156.292 20.16C157.935 20.16 159.215 20.64 160.132 21.6C161.05 22.5387 161.508 23.968 161.508 25.888V34.4C161.508 34.9547 161.38 35.36 161.124 35.616C160.868 35.872 160.431 36 159.812 36H157.22C156.602 36 156.164 35.872 155.908 35.616C155.652 35.36 155.524 34.9547 155.524 34.4V26.304C155.524 25.6853 155.407 25.2373 155.172 24.96C154.959 24.6827 154.628 24.544 154.18 24.544C153.668 24.544 153.263 24.7147 152.964 25.056C152.687 25.376 152.548 25.8347 152.548 26.432V34.4C152.548 34.9547 152.42 35.36 152.164 35.616C151.908 35.872 151.471 36 150.852 36H148.516C147.898 36 147.46 35.872 147.204 35.616C146.948 35.36 146.82 34.9547 146.82 34.4V26.24C146.82 25.1093 146.383 24.544 145.508 24.544C144.975 24.544 144.559 24.7147 144.26 25.056C143.962 25.3973 143.812 25.8667 143.812 26.464V34.4C143.812 34.9547 143.684 35.36 143.428 35.616C143.194 35.872 142.767 36 142.148 36H139.556Z" fill="#0CFFFC"/>
<path d="M78.2431 36C77.6245 36 77.1871 35.872 76.9311 35.616C76.6965 35.36 76.5791 34.9547 76.5791 34.4V15.872C76.5791 15.3173 76.7071 14.912 76.9631 14.656C77.2191 14.3787 77.6458 14.24 78.2431 14.24H86.0831C89.0698 14.24 91.2671 14.8693 92.6751 16.128C94.0831 17.3867 94.7871 19.264 94.7871 21.76C94.7871 24.2347 94.0831 26.1013 92.6751 27.36C91.2885 28.5973 89.0911 29.216 86.0831 29.216H83.0431V34.4C83.0431 34.9547 82.9151 35.36 82.6591 35.616C82.4031 35.872 81.9658 36 81.3471 36H78.2431ZM85.5711 24.576C86.4458 24.576 87.1178 24.3413 87.5871 23.872C88.0778 23.4027 88.3231 22.6987 88.3231 21.76C88.3231 20.8 88.0778 20.0853 87.5871 19.616C87.1178 19.1467 86.4458 18.912 85.5711 18.912H83.0431V24.576H85.5711Z" fill="white"/>
</svg>
