<svg width="278" height="198" viewBox="0 0 278 198" fill="none" xmlns="http://www.w3.org/2000/svg">
<path d="M151.517 119.292C155.117 119.292 158.034 116.374 158.034 112.775C158.034 109.176 155.117 106.258 151.517 106.258C147.918 106.258 145 109.176 145 112.775C145 116.374 147.918 119.292 151.517 119.292Z" fill="#009CDE"/>
<path d="M121.724 119.292C125.324 119.292 128.242 116.374 128.242 112.775C128.242 109.176 125.324 106.258 121.724 106.258C118.125 106.258 115.207 109.176 115.207 112.775C115.207 116.374 118.125 119.292 121.724 119.292Z" fill="#009CDE"/>
<path d="M109.024 50.1722L108.279 59.2964C108.13 61.0467 109.508 62.4991 111.258 62.4991H168.275C169.839 62.4991 171.143 61.3074 171.254 59.7433C171.738 53.1515 166.711 47.7888 160.119 47.7888H114.349C113.977 46.1502 113.232 44.586 112.078 43.2826C110.216 41.3088 107.609 40.1543 104.927 40.1543H98.4474C96.9205 40.1543 95.6543 41.4205 95.6543 42.9474C95.6543 44.4743 96.9205 45.7405 98.4474 45.7405H104.927C106.082 45.7405 107.162 46.2246 107.944 47.044C108.726 47.9005 109.098 49.0177 109.024 50.1722Z" fill="#009CDE"/>
<path d="M167.382 68.0859H110.254C108.69 68.0859 107.424 69.2777 107.275 70.8046L105.934 87.0046C105.413 93.3728 110.403 98.8101 116.771 98.8101H158.184C163.77 98.8101 168.686 94.2294 169.095 88.6432L170.324 71.2515C170.473 69.5384 169.133 68.0859 167.382 68.0859Z" fill="#009CDE"/>
<path d="M168.792 91.3613C171.306 91.3613 173.344 89.3234 173.344 86.8095C173.344 84.2957 171.306 82.2578 168.792 82.2578C166.278 82.2578 164.24 84.2957 164.24 86.8095C164.24 89.3234 166.278 91.3613 168.792 91.3613Z" fill="#009CDE" stroke="#012169" stroke-width="2" stroke-miterlimit="10" stroke-linecap="round" stroke-linejoin="round"/>
<path d="M153.621 88.1465V85.4762C153.621 83.8982 154.911 82.5934 156.504 82.5934C159.25 82.5934 160.373 80.6513 158.992 78.2693C158.203 76.9037 158.674 75.1286 160.054 74.3396L162.679 72.8375C163.878 72.1244 165.425 72.5493 166.138 73.7479L166.305 74.0362C167.671 76.4182 169.916 76.4182 171.297 74.0362L171.464 73.7479C172.177 72.5493 173.725 72.1244 174.923 72.8375L177.548 74.3396C178.929 75.1286 179.399 76.9037 178.61 78.2693C177.229 80.6513 178.352 82.5934 181.098 82.5934C182.676 82.5934 183.981 83.883 183.981 85.4762V88.1465C183.981 89.7244 182.691 91.0293 181.098 91.0293C178.352 91.0293 177.229 92.9713 178.61 95.3534C179.399 96.7341 178.929 98.4941 177.548 99.283L174.923 100.785C173.725 101.498 172.177 101.073 171.464 99.8748L171.297 99.5865C169.931 97.2044 167.686 97.2044 166.305 99.5865L166.138 99.8748C165.425 101.073 163.878 101.498 162.679 100.785L160.054 99.283C158.674 98.4941 158.203 96.7189 158.992 95.3534C160.373 92.9713 159.25 91.0293 156.504 91.0293C154.911 91.0293 153.621 89.7244 153.621 88.1465Z" stroke="#012169" stroke-width="2" stroke-miterlimit="10" stroke-linecap="round" stroke-linejoin="round"/>
<path d="M53.584 192.38C51.024 192.38 48.4 192.081 45.712 191.484C43.0667 190.929 41.104 190.204 39.824 189.308C39.5253 189.052 39.376 188.775 39.376 188.476C39.376 188.263 39.44 188.049 39.568 187.836L42.32 182.78C42.448 182.567 42.576 182.375 42.704 182.204C42.8747 182.076 43.0453 182.012 43.216 182.012C43.3013 182.012 43.5573 182.097 43.984 182.268C45.9893 183.292 48.7627 183.804 52.304 183.804C54.3093 183.804 55.824 183.377 56.848 182.524C57.872 181.671 58.384 180.284 58.384 178.364C57.5307 178.961 56.464 179.452 55.184 179.836C53.904 180.177 52.5387 180.348 51.088 180.348C46.0107 180.348 42.128 179.089 39.44 176.572C36.7947 174.055 35.472 170.407 35.472 165.628C35.472 160.423 37.0933 156.497 40.336 153.852C43.5787 151.164 48.3787 149.82 54.736 149.82C57.936 149.82 60.9867 150.268 63.888 151.164C66.7893 152.06 69.2 153.191 71.12 154.556V174.972C71.12 180.177 69.6267 184.38 66.64 187.58C63.6533 190.78 59.3013 192.38 53.584 192.38ZM53.904 171.324C56.976 171.324 58.512 169.852 58.512 166.908V159.164C57.616 158.78 56.1227 158.588 54.032 158.588C52.1547 158.588 50.7253 159.057 49.744 159.996C48.8053 160.935 48.336 162.62 48.336 165.052C48.336 167.228 48.784 168.828 49.68 169.852C50.576 170.833 51.984 171.324 53.904 171.324ZM79.955 181.5C78.7177 181.5 77.843 181.244 77.331 180.732C76.8617 180.22 76.627 179.409 76.627 178.3V141.244C76.627 140.135 76.883 139.324 77.395 138.812C77.907 138.257 78.7603 137.98 79.955 137.98H95.635C101.608 137.98 106.003 139.239 108.819 141.756C111.635 144.273 113.043 148.028 113.043 153.02C113.043 157.969 111.635 161.703 108.819 164.22C106.046 166.695 101.651 167.932 95.635 167.932H89.555V178.3C89.555 179.409 89.299 180.22 88.787 180.732C88.275 181.244 87.4003 181.5 86.163 181.5H79.955ZM94.611 158.652C96.3603 158.652 97.7043 158.183 98.643 157.244C99.6243 156.305 100.115 154.897 100.115 153.02C100.115 151.1 99.6243 149.671 98.643 148.732C97.7043 147.793 96.3603 147.324 94.611 147.324H89.555V158.652H94.611ZM119.582 181.5C118.344 181.5 117.47 181.244 116.958 180.732C116.446 180.22 116.19 179.409 116.19 178.3V152.764C116.19 151.996 116.318 151.484 116.574 151.228C116.872 150.929 117.47 150.78 118.366 150.78H124.958C125.47 150.78 125.854 150.865 126.11 151.036C126.408 151.164 126.579 151.42 126.622 151.804L126.942 153.66C129.502 151.1 132.595 149.82 136.222 149.82C137.63 149.82 138.782 149.948 139.678 150.204C140.574 150.417 141.384 150.78 142.11 151.292C142.536 151.591 142.75 151.932 142.75 152.316C142.75 152.444 142.707 152.679 142.622 153.02L140.574 158.844C140.403 159.441 140.083 159.74 139.614 159.74C139.4 159.74 139.144 159.655 138.846 159.484C137.694 158.844 136.307 158.524 134.686 158.524C133.064 158.524 131.72 158.972 130.654 159.868C129.63 160.764 129.118 161.959 129.118 163.452V178.3C129.118 179.409 128.862 180.22 128.35 180.732C127.88 181.244 127.027 181.5 125.79 181.5H119.582ZM150.17 147.516C148.719 147.516 147.61 147.132 146.842 146.364C146.074 145.553 145.69 144.615 145.69 143.548V142.012C145.69 140.903 146.074 139.964 146.842 139.196C147.61 138.385 148.719 137.98 150.17 137.98H154.778C156.271 137.98 157.402 138.385 158.17 139.196C158.938 139.964 159.322 140.903 159.322 142.012V143.548C159.322 144.615 158.938 145.553 158.17 146.364C157.402 147.132 156.271 147.516 154.778 147.516H150.17ZM149.402 181.5C148.164 181.5 147.29 181.244 146.778 180.732C146.266 180.22 146.01 179.409 146.01 178.3V154.044C146.01 152.935 146.266 152.124 146.778 151.612C147.29 151.057 148.164 150.78 149.402 150.78H155.546C156.783 150.78 157.658 151.057 158.17 151.612C158.724 152.124 159.002 152.935 159.002 154.044V178.3C159.002 179.409 158.724 180.22 158.17 180.732C157.658 181.244 156.783 181.5 155.546 181.5H149.402ZM179.663 182.46C173.647 182.46 168.676 181.351 164.751 179.132C163.94 178.62 163.535 178.172 163.535 177.788C163.535 177.575 163.641 177.255 163.855 176.828L166.543 172.028C166.799 171.516 167.119 171.26 167.503 171.26C167.759 171.26 168.121 171.388 168.591 171.644C169.785 172.284 171.3 172.881 173.135 173.436C175.012 173.948 176.676 174.204 178.127 174.204C179.492 174.204 180.473 174.076 181.071 173.82C181.668 173.521 181.967 173.052 181.967 172.412C181.967 171.815 181.54 171.324 180.687 170.94C179.876 170.513 178.383 169.98 176.207 169.34L174.799 168.956C171.257 167.889 168.697 166.673 167.119 165.308C165.54 163.943 164.751 162.001 164.751 159.484C164.751 156.369 166.095 153.98 168.783 152.316C171.471 150.652 175.076 149.82 179.599 149.82C182.415 149.82 184.868 150.076 186.959 150.588C189.049 151.1 191.055 151.868 192.975 152.892C193.743 153.319 194.127 153.788 194.127 154.3C194.127 154.599 193.999 154.983 193.743 155.452L191.119 159.612C190.82 160.081 190.521 160.316 190.223 160.316C189.967 160.316 189.625 160.188 189.199 159.932C188.175 159.377 186.98 158.929 185.615 158.588C184.249 158.247 182.927 158.076 181.647 158.076C178.703 158.076 177.231 158.716 177.231 159.996C177.231 160.593 177.7 161.105 178.639 161.532C179.62 161.916 181.113 162.343 183.119 162.812C183.588 162.94 184.228 163.111 185.039 163.324C185.892 163.537 186.596 163.751 187.151 163.964C189.199 164.689 190.777 165.436 191.887 166.204C192.996 166.929 193.785 167.804 194.255 168.828C194.724 169.809 194.958 171.068 194.958 172.604C194.958 174.439 194.404 176.103 193.295 177.596C192.185 179.047 190.479 180.22 188.175 181.116C185.871 182.012 183.033 182.46 179.663 182.46ZM202.582 181.5C201.344 181.5 200.47 181.244 199.958 180.732C199.446 180.22 199.19 179.409 199.19 178.3V152.764C199.19 151.996 199.318 151.484 199.574 151.228C199.872 150.929 200.47 150.78 201.366 150.78H207.446C207.958 150.78 208.342 150.865 208.598 151.036C208.896 151.164 209.067 151.42 209.11 151.804L209.43 153.788C210.624 152.551 211.968 151.591 213.462 150.908C214.955 150.183 216.704 149.82 218.71 149.82C220.502 149.82 222.038 150.14 223.318 150.78C224.598 151.42 225.686 152.401 226.582 153.724C227.734 152.487 229.056 151.527 230.55 150.844C232.086 150.161 233.92 149.82 236.054 149.82C239.339 149.82 241.899 150.78 243.734 152.7C245.568 154.577 246.486 157.436 246.486 161.276V178.3C246.486 179.409 246.23 180.22 245.718 180.732C245.206 181.244 244.331 181.5 243.094 181.5H237.91C236.672 181.5 235.798 181.244 235.286 180.732C234.774 180.22 234.518 179.409 234.518 178.3V162.108C234.518 160.871 234.283 159.975 233.814 159.42C233.387 158.865 232.726 158.588 231.83 158.588C230.806 158.588 229.995 158.929 229.398 159.612C228.843 160.252 228.566 161.169 228.566 162.364V178.3C228.566 179.409 228.31 180.22 227.798 180.732C227.286 181.244 226.411 181.5 225.174 181.5H220.502C219.264 181.5 218.39 181.244 217.878 180.732C217.366 180.22 217.11 179.409 217.11 178.3V161.98C217.11 159.719 216.235 158.588 214.486 158.588C213.419 158.588 212.587 158.929 211.99 159.612C211.392 160.295 211.094 161.233 211.094 162.428V178.3C211.094 179.409 210.838 180.22 210.326 180.732C209.856 181.244 209.003 181.5 207.766 181.5H202.582Z" fill="#012169"/>
</svg>
