<svg width="147" height="82" viewBox="0 0 147 82" fill="none" xmlns="http://www.w3.org/2000/svg">
<ellipse cx="73.5001" cy="72.5426" rx="72.7891" ry="3.03288" fill="black" fill-opacity="0.4"/>
<ellipse cx="75.9257" cy="79.8217" rx="42.4603" ry="1.81973" fill="black" fill-opacity="0.4"/>
<circle cx="54.4489" cy="19.8361" r="11.5909" fill="#FCFFF1" stroke="black" stroke-width="1.21315"/>
<path d="M34.0748 58.3789C34.0748 46.3188 43.8515 36.5421 55.9116 36.5421C67.9717 36.5421 77.7483 46.3188 77.7483 58.3789V72.4092H34.0748V58.3789Z" fill="#FCFFF1" stroke="black" stroke-width="1.21315"/>
<circle cx="122.383" cy="19.8361" r="11.5909" fill="#FCFFF1" stroke="black" stroke-width="1.21315"/>
<path d="M102.009 58.3789C102.009 46.3188 111.786 36.5421 123.846 36.5421C135.906 36.5421 145.683 46.3188 145.683 58.3789V72.4092H102.009V58.3789Z" fill="#FCFFF1" stroke="black" stroke-width="1.21315"/>
<circle cx="88.6634" cy="15.5238" r="14.5578" fill="#003087" stroke="black" stroke-width="1.21315"/>
<path d="M63.1876 63.4435C63.1876 48.3684 75.4084 36.1476 90.4836 36.1476C105.559 36.1476 117.779 48.3684 117.779 63.4435V81.0342H63.1876V63.4435Z" fill="#003087" stroke="black" stroke-width="1.21315"/>
</svg>
