<svg width="32" height="32" viewBox="0 0 32 32" fill="none" xmlns="http://www.w3.org/2000/svg">
<path d="M31.4837 10.6312L31.0445 6.43627C30.4085 1.86273 28.3337 0 23.8965 0H20.3225H18.0811H13.4773H11.236H7.60137C3.14898 0 1.08938 1.86273 0.438178 6.48171L0.029285 10.6464C-0.122157 12.2668 0.317024 13.8418 1.27111 15.0685C2.42206 16.5677 4.19393 17.4158 6.16267 17.4158C8.07084 17.4158 9.90329 16.4617 11.0542 14.9322C12.084 16.4617 13.8408 17.4158 15.7944 17.4158C17.748 17.4158 19.4593 16.5071 20.5042 14.9927C21.6703 16.492 23.4725 17.4158 25.3503 17.4158C27.3645 17.4158 29.1818 16.5223 30.3176 14.9473C31.2263 13.7358 31.6352 12.2062 31.4837 10.6312Z" fill="#ABB7C2"/>
<path d="M14.81 23.3366C12.8867 23.5335 11.4329 25.169 11.4329 27.1075V31.257C11.4329 31.6659 11.766 31.999 12.1749 31.999H19.3987C19.8076 31.999 20.1408 31.6659 20.1408 31.257V27.6375C20.1559 24.4724 18.2932 22.9731 14.81 23.3366Z" fill="#ABB7C2"/>
<path d="M29.9847 19.9144V24.4274C29.9847 28.6072 26.5924 31.9995 22.4126 31.9995C22.0037 31.9995 21.6705 31.6663 21.6705 31.2574V27.638C21.6705 25.6995 21.0799 24.1851 19.9289 23.1553C18.9143 22.2315 17.5362 21.7772 15.8249 21.7772C15.4463 21.7772 15.0677 21.7923 14.6588 21.8378C11.9631 22.1103 9.91864 24.382 9.91864 27.1079V31.2574C9.91864 31.6663 9.58547 31.9995 9.17658 31.9995C4.99679 31.9995 1.60449 28.6072 1.60449 24.4274V19.9447C1.60449 18.8846 2.64944 18.1729 3.63381 18.5212C4.0427 18.6575 4.4516 18.7635 4.87563 18.8241C5.05736 18.8544 5.25424 18.8846 5.43597 18.8846C5.67827 18.9149 5.92058 18.9301 6.16289 18.9301C7.91961 18.9301 9.64605 18.2789 11.009 17.1582C12.3114 18.2789 14.0076 18.9301 15.7946 18.9301C17.5967 18.9301 19.2626 18.3092 20.565 17.1885C21.928 18.294 23.6241 18.9301 25.3506 18.9301C25.6231 18.9301 25.8957 18.9149 26.1532 18.8846C26.3349 18.8695 26.5015 18.8544 26.6681 18.8241C27.1376 18.7635 27.5616 18.6272 27.9856 18.4909C28.97 18.1577 29.9847 18.8846 29.9847 19.9144Z" fill="#ABB7C2"/>
</svg>
