<svg width="398" height="208" viewBox="0 0 398 208" fill="none" xmlns="http://www.w3.org/2000/svg">
<g clip-path="url(#clip0_157_4352)">
<rect x="104" y="18" width="190" height="190" rx="95" fill="#EFE8FF"/>
<path d="M147.898 196.583L297.5 151.291L178.093 141.684L58 164.33L147.898 196.583Z" fill="#009CDE"/>
<path d="M131.428 151.357V89.9935L209.296 71L297.5 89.9935V151.357L209.296 176.682L131.428 151.357Z" fill="white"/>
<path d="M209.66 112.175L208.974 71L132.801 89.6723L209.66 112.175Z" fill="#FCFBFF"/>
<path d="M208.974 112.175L208.288 71L296.128 90.3764L208.974 112.175Z" fill="#C8BFDF"/>
<path d="M131.428 151.291V90.2148L209.66 112.175V176.682L131.428 151.291Z" fill="#7AB6FB"/>
<path d="M131.428 151.357V89.9935L209.296 71L297.5 89.9935V151.357L209.296 176.682L131.428 151.357Z" stroke="#200E52" stroke-width="0.914841"/>
<path d="M209.66 176.682V112.983L296.127 91.5879" stroke="#200E52" stroke-width="0.914841"/>
<path d="M131.428 90.2148L209.66 112.175" stroke="#200E52" stroke-width="0.914841"/>
<path d="M112.9 119.037L131.428 90.2148L209.66 111.915L190.445 143.742L112.9 119.037Z" fill="#EFE9FF" stroke="#200E52" stroke-width="0.914841"/>
<path d="M227.396 145.115L210.975 111.916L296.942 90.2148L316.715 120.606L227.396 145.115Z" fill="white" stroke="#200E52" stroke-width="0.914841"/>
</g>
<path d="M284.6 43.9268C284.6 60.3071 271.376 73.586 255.062 73.586C238.749 73.586 225.525 60.3071 225.525 43.9268C225.525 27.5464 238.749 14.2675 255.062 14.2675C271.376 14.2675 284.6 27.5464 284.6 43.9268Z" fill="#003087"/>
<path d="M288 43.9268C288 48.306 287.134 52.6417 285.452 56.6822C283.77 60.7226 281.305 64.3875 278.202 67.464C275.098 70.5405 271.416 72.9674 267.371 74.6039C263.326 76.2404 258.997 77.0539 254.636 76.9972C250.275 76.9405 245.969 76.0148 241.967 74.2736C237.965 72.5325 234.348 70.0107 231.324 66.8546C228.301 63.6984 225.932 59.9707 224.354 55.8879C222.777 51.8051 222.023 47.4483 222.136 43.0705L222.859 43.0893C222.749 47.371 223.486 51.6321 225.029 55.6253C226.571 59.6184 228.889 63.2642 231.846 66.3511C234.803 69.4379 238.341 71.9044 242.255 73.6073C246.169 75.3102 250.38 76.2156 254.645 76.271C258.911 76.3265 263.144 75.5308 267.101 73.9303C271.057 72.3297 274.658 69.9561 277.693 66.9471C280.729 63.9382 283.139 60.3538 284.785 56.4021C286.43 52.4503 287.277 48.2099 287.277 43.9268H288Z" fill="#003087"/>
<path d="M249.738 56.0892L239.55 45.7183L241.765 43.4638L249.738 51.5801L268.785 32.1911L271 34.4456L249.738 56.0892Z" fill="white"/>
<path d="M226.61 23.7795C229.898 19.1833 234.305 15.511 239.41 13.1139C244.515 10.7168 250.147 9.67506 255.768 10.0883L255.715 10.8126C250.218 10.4084 244.709 11.4273 239.716 13.7718C234.724 16.1163 230.413 19.7079 227.198 24.2032L226.61 23.7795Z" fill="#003087"/>
<defs>
<clipPath id="clip0_157_4352">
<rect x="104" y="18" width="190" height="190" rx="95" fill="white"/>
</clipPath>
</defs>
</svg>
