<svg width="24" height="25" viewBox="0 0 24 25" fill="none" xmlns="http://www.w3.org/2000/svg">
<path d="M12 0.5C5.388 0.5 0 5.888 0 12.5C0 19.112 5.388 24.5 12 24.5C18.612 24.5 24 19.112 24 12.5C24 5.888 18.612 0.5 12 0.5ZM17.736 9.74L10.932 16.544C10.764 16.712 10.536 16.808 10.296 16.808C10.056 16.808 9.828 16.712 9.66 16.544L6.264 13.148C5.916 12.8 5.916 12.224 6.264 11.876C6.612 11.528 7.188 11.528 7.536 11.876L10.296 14.636L16.464 8.468C16.812 8.12 17.388 8.12 17.736 8.468C18.084 8.816 18.084 9.38 17.736 9.74Z" fill="#11D18C"/>
</svg>
